<svg height="512pt" viewBox="0 0 512 512" width="512pt" xmlns="http://www.w3.org/2000/svg"><path d="m512 256c0 141.386719-114.613281 256-256 256s-256-114.613281-256-256 114.613281-256 256-256 256 114.613281 256 256zm0 0" fill="#ffaa20"/><path d="m512 256c0-6.613281-.25-13.171875-.742188-19.660156l-68.664062-68.660156c-8.410156-9.457032-18.707031-17.203126-30.300781-22.636719l-145.417969-144.796875c-1.761719-.074219-3.527344-.132813-5.296875-.1757815-1.855469-.0390625-3.710937-.0703125-5.578125-.0703125s-3.722656.03125-5.578125.0703125c-1.769531.0429685-3.535156.1015625-5.296875.1757815v137.753906h-11.132812c-9.941407 0-18.003907 8.0625-18.003907 18.007812v6.316407h-11.707031c-16.835938-16.160157-39.6875-26.089844-64.863281-26.089844-51.734375 0-93.675781 41.941406-93.675781 93.675781 0 15.574219 3.804687 30.257813 10.53125 43.183594h-.003907l47.136719 123.070312c2.3125 6.042969 5.773438 10.96875 9.957031 14.796876 0 0 52.394531 52.46875 96.992188 96.976562 14.808593 2.667969 30.0625 4.0625 45.644531 4.0625 141.386719 0 256-114.613281 256-256zm0 0" fill="#ff8900"/><path d="m266.875 146.667969v-146.421875c-3.609375-.152344-7.230469-.246094-10.875-.246094s-7.265625.09375-10.875.246094v146.421875zm0 0" fill="#78777f"/><path d="m266.871094.25v146.421875h-10.871094v-146.671875c3.640625 0 7.269531.0898438 10.871094.25zm0 0" fill="#3c3b41"/><path d="m296.011719 163.5h-80.027344v-7.492188c0-9.945312 8.0625-18.007812 18.007813-18.007812h44.015624c9.945313 0 18.007813 8.0625 18.007813 18.007812v7.492188zm0 0" fill="#e1e1e3"/><path d="m296.011719 156.011719v7.488281h-40.011719v-25.5h22.011719c9.9375 0 18 8.058594 18 18.011719zm0 0" fill="#c8c6cc"/><path d="m466.257812 229.910156c0-51.738281-41.941406-93.679687-93.675781-93.679687-25.175781 0-48.027343 9.933593-64.859375 26.09375h-103.445312c-16.832032-16.160157-39.683594-26.09375-64.859375-26.09375-51.734375 0-93.675781 41.941406-93.675781 93.679687 0 15.574219 3.804687 30.257813 10.53125 43.179688h-.003907l47.136719 123.074218c12.648438 33.027344 59.375 33.027344 72.027344 0l24.667968-64.40625h111.800782l24.664062 64.40625c12.652344 33.027344 59.378906 33.027344 72.03125 0l47.136719-123.074218h-.003906c6.722656-12.921875 10.527343-27.605469 10.527343-43.179688zm0 0" fill="#fff"/><path d="m466.261719 229.910156c0 7.789063-.953125 15.351563-2.742188 22.578125-1.800781 7.242188-4.429687 14.140625-7.789062 20.601563l-47.128907 123.070312c-12.652343 33.03125-59.382812 33.03125-72.03125 0l-24.671874-64.398437h-55.898438v-169.441407h51.71875c16.832031-16.148437 39.691406-26.089843 64.859375-26.089843 51.742187 0 93.683594 41.941406 93.683594 93.679687zm0 0" fill="#fff5cb"/><path d="m213.101562 297.808594-13 33.949218h111.800782l-13.003906-33.949218zm0 0" fill="#e1e1e3"/><path d="m311.898438 331.761719h-55.898438v-33.953125h42.898438zm0 0" fill="#c8c6cc"/><path d="m212.03125 229.910156c0 40.101563-32.507812 72.613282-72.613281 72.613282s-72.613281-32.511719-72.613281-72.613282c0-40.105468 32.507812-72.617187 72.613281-72.617187s72.613281 32.511719 72.613281 72.617187zm0 0" fill="#e1e1e3"/><path d="m445.195312 229.910156c0 40.101563-32.507812 72.613282-72.613281 72.613282s-72.613281-32.511719-72.613281-72.613282c0-40.105468 32.507812-72.617187 72.613281-72.617187s72.613281 32.511719 72.613281 72.617187zm0 0" fill="#c8c6cc"/><path d="m239.417969 211.046875h33.164062v13.9375h-33.164062zm0 0" fill="#00efd1"/><path d="m256 211.050781h16.578125v13.929688h-16.578125zm0 0" fill="#00ad95"/><path d="m239.417969 240.808594h33.164062v13.933594h-33.164062zm0 0" fill="#ff328e"/><path d="m256 240.808594h16.578125v13.929687h-16.578125zm0 0" fill="#c50a5b"/><path d="m172.898438 213.640625h-17.210938v-17.210937c0-8.984376-7.285156-16.265626-16.269531-16.265626s-16.269531 7.28125-16.269531 16.265626v17.210937h-17.207032c-8.988281 0-16.269531 7.285156-16.269531 16.269531s7.28125 16.269532 16.269531 16.269532h17.210938v17.210937c0 8.980469 7.28125 16.265625 16.265625 16.265625s16.269531-7.28125 16.269531-16.265625v-17.210937h17.210938c8.984374 0 16.265624-7.285157 16.265624-16.269532s-7.28125-16.269531-16.265624-16.269531zm0 0" fill="#ab3ccc"/><path d="m389.320312 196.902344c0 9.246094-7.492187 16.738281-16.738281 16.738281-9.246093 0-16.738281-7.492187-16.738281-16.738281s7.492188-16.738282 16.738281-16.738282c9.246094 0 16.738281 7.492188 16.738281 16.738282zm0 0" fill="#c50a5b"/><path d="m389.320312 262.914062c0 9.246094-7.492187 16.742188-16.738281 16.742188-9.246093 0-16.738281-7.496094-16.738281-16.742188 0-9.242187 7.492188-16.738281 16.738281-16.738281 9.246094 0 16.738281 7.496094 16.738281 16.738281zm0 0" fill="#c50a5b"/><g fill="#5c1b6f"><path d="m422.328125 229.910156c0 9.242188-7.496094 16.738282-16.738281 16.738282-9.246094 0-16.738282-7.496094-16.738282-16.738282 0-9.246094 7.492188-16.738281 16.738282-16.738281 9.242187 0 16.738281 7.492187 16.738281 16.738281zm0 0"/><path d="m356.3125 229.910156c0 9.242188-7.492188 16.738282-16.738281 16.738282-9.242188 0-16.738281-7.496094-16.738281-16.738282 0-9.246094 7.496093-16.738281 16.738281-16.738281 9.246093 0 16.738281 7.492187 16.738281 16.738281zm0 0"/></g></svg>