<?xml version="1.0" encoding="utf-8"?>
<!-- Generator: Adobe Illustrator 27.3.1, SVG Export Plug-In . SVG Version: 6.00 Build 0)  -->
<svg version="1.1" id="Layer_1" xmlns="http://www.w3.org/2000/svg" xmlns:xlink="http://www.w3.org/1999/xlink" x="0px" y="0px"
	 viewBox="0 0 634.4 177.5" style="enable-background:new 0 0 634.4 177.5;" xml:space="preserve">
<style type="text/css">
	.st0{enable-background:new    ;}
	.st1{fill:#FFFFFF;}
	.st2{fill:#E92938;}
	.st3{fill:none;}
	.st4{fill:none;stroke:#E92938;stroke-width:5;stroke-miterlimit:10;}
	.st5{opacity:0.73;enable-background:new    ;}
	.st6{display:none;}
	.st7{display:inline;fill:#666666;}
	.st8{font-family:'HelveticaNeue-Bold';}
	.st9{font-size:29.9261px;}
	.st10{display:inline;fill:#E92938;}
	.st11{display:inline;fill:none;}
	.st12{display:inline;fill:#FFFFFF;}
	.st13{display:inline;fill:none;stroke:#E92938;stroke-width:5;stroke-miterlimit:10;}
	.st14{display:inline;opacity:0.73;fill:#666666;enable-background:new    ;}
	.st15{font-family:'HelveticaNeue-Thin';}
	.st16{font-size:58.4271px;}
	.st17{display:inline;}
	.st18{display:inline;fill:#FFFFFF;stroke:#000000;stroke-miterlimit:10;}
	.st19{display:inline;fill:none;stroke:#000000;stroke-width:5;stroke-miterlimit:10;}
	.st20{display:inline;opacity:0.73;enable-background:new    ;}
</style>
<g class="st0">
	<path class="st1" d="M206.1,104.1v21.4h-4.7v-21.4H206.1z"/>
	<path class="st1" d="M213.8,109.9v2.2h0.1c0.5-0.9,1.2-1.6,2.1-2c0.9-0.4,1.7-0.6,2.6-0.6c1.1,0,2.1,0.2,2.8,0.5
		c0.7,0.3,1.3,0.7,1.7,1.3s0.7,1.2,0.9,2c0.2,0.8,0.3,1.7,0.3,2.6v9.5H220v-8.7c0-1.3-0.2-2.2-0.6-2.9c-0.4-0.6-1.1-0.9-2.1-0.9
		c-1.2,0-2,0.3-2.5,1c-0.5,0.7-0.8,1.8-0.8,3.4v8.1h-4.2v-15.5H213.8z"/>
	<path class="st1" d="M231.5,109.9v2.2h0.1c0.5-0.9,1.2-1.6,2.1-2c0.9-0.4,1.7-0.6,2.6-0.6c1.1,0,2.1,0.2,2.8,0.5s1.3,0.7,1.7,1.3
		s0.7,1.2,0.9,2c0.2,0.8,0.3,1.7,0.3,2.6v9.5h-4.2v-8.7c0-1.3-0.2-2.2-0.6-2.9c-0.4-0.6-1.1-0.9-2.1-0.9c-1.2,0-2,0.3-2.5,1
		s-0.8,1.8-0.8,3.4v8.1h-4.2v-15.5H231.5z"/>
	<path class="st1" d="M245.3,114.3c0.4-1,0.9-1.9,1.6-2.6c0.7-0.7,1.5-1.3,2.5-1.6c1-0.4,2.1-0.6,3.3-0.6c1.2,0,2.3,0.2,3.3,0.6
		c1,0.4,1.8,0.9,2.5,1.6s1.2,1.6,1.6,2.6c0.4,1,0.6,2.1,0.6,3.4s-0.2,2.4-0.6,3.4c-0.4,1-0.9,1.9-1.6,2.6s-1.5,1.3-2.5,1.6
		s-2.1,0.6-3.3,0.6c-1.2,0-2.3-0.2-3.3-0.6s-1.8-0.9-2.5-1.6c-0.7-0.7-1.2-1.6-1.6-2.6c-0.4-1-0.6-2.1-0.6-3.4
		S244.9,115.3,245.3,114.3z M249.2,119.5c0.1,0.6,0.3,1.1,0.6,1.6s0.7,0.8,1.2,1.1s1.1,0.4,1.8,0.4c0.7,0,1.3-0.1,1.8-0.4
		c0.5-0.3,0.9-0.7,1.2-1.1c0.3-0.5,0.5-1,0.6-1.6c0.1-0.6,0.2-1.2,0.2-1.8s-0.1-1.2-0.2-1.8c-0.1-0.6-0.3-1.1-0.6-1.6
		c-0.3-0.5-0.7-0.8-1.2-1.1c-0.5-0.3-1.1-0.4-1.8-0.4c-0.7,0-1.3,0.1-1.8,0.4c-0.5,0.3-0.9,0.7-1.2,1.1c-0.3,0.5-0.5,1-0.6,1.6
		c-0.1,0.6-0.2,1.2-0.2,1.8S249.1,118.9,249.2,119.5z"/>
	<path class="st1" d="M267.3,125.4l-5.3-15.5h4.5l3.3,10.6h0.1l3.3-10.6h4.2l-5.2,15.5H267.3z"/>
	<path class="st1" d="M278.9,114.7c0.1-1,0.3-1.8,0.7-2.5s1-1.2,1.7-1.6c0.7-0.4,1.4-0.7,2.3-0.9c0.8-0.2,1.7-0.3,2.6-0.3
		c0.8,0,1.6,0.1,2.4,0.2c0.8,0.1,1.5,0.3,2.2,0.6c0.7,0.3,1.2,0.8,1.6,1.3s0.6,1.3,0.6,2.3v8c0,0.7,0,1.4,0.1,2
		c0.1,0.6,0.2,1.1,0.4,1.4h-4.3c-0.1-0.2-0.1-0.5-0.2-0.7c-0.1-0.2-0.1-0.5-0.1-0.8c-0.7,0.7-1.5,1.2-2.4,1.5
		c-0.9,0.3-1.9,0.4-2.8,0.4c-0.7,0-1.4-0.1-2.1-0.3c-0.6-0.2-1.2-0.5-1.7-0.8c-0.5-0.4-0.9-0.9-1.1-1.4c-0.3-0.6-0.4-1.3-0.4-2.1
		c0-0.9,0.2-1.6,0.5-2.2c0.3-0.6,0.7-1,1.2-1.4c0.5-0.3,1-0.6,1.7-0.8c0.6-0.2,1.3-0.3,1.9-0.4c0.6-0.1,1.3-0.2,1.9-0.2
		s1.2-0.1,1.6-0.3c0.5-0.1,0.9-0.3,1.1-0.5s0.4-0.6,0.4-1c0-0.5-0.1-0.8-0.2-1.1c-0.2-0.3-0.3-0.5-0.6-0.6c-0.2-0.1-0.5-0.2-0.9-0.3
		s-0.7-0.1-1.1-0.1c-0.8,0-1.5,0.2-2,0.5c-0.5,0.4-0.8,1-0.8,1.8H278.9z M288.7,117.8c-0.2,0.2-0.4,0.3-0.7,0.4s-0.6,0.2-0.9,0.2
		s-0.6,0.1-1,0.1c-0.3,0-0.7,0.1-1,0.1c-0.3,0.1-0.6,0.1-0.9,0.2c-0.3,0.1-0.6,0.2-0.8,0.4c-0.2,0.2-0.4,0.4-0.6,0.6
		c-0.1,0.3-0.2,0.6-0.2,1c0,0.4,0.1,0.7,0.2,1c0.1,0.3,0.3,0.5,0.6,0.6s0.5,0.3,0.8,0.3s0.6,0.1,1,0.1c0.8,0,1.5-0.1,1.9-0.4
		s0.8-0.6,1-1c0.2-0.4,0.4-0.8,0.4-1.2s0.1-0.7,0.1-1V117.8z"/>
	<path class="st1" d="M304.8,109.9v2.8h-3.1v7.7c0,0.7,0.1,1.2,0.4,1.4s0.7,0.4,1.4,0.4c0.2,0,0.5,0,0.7,0c0.2,0,0.4,0,0.6-0.1v3.3
		c-0.4,0.1-0.8,0.1-1.2,0.1c-0.4,0-0.9,0-1.3,0c-0.7,0-1.3,0-1.9-0.1c-0.6-0.1-1.1-0.3-1.6-0.5c-0.4-0.3-0.8-0.6-1.1-1.1
		c-0.3-0.5-0.4-1.1-0.4-1.9v-9.1h-2.6v-2.8h2.6v-4.6h4.2v4.6H304.8z"/>
	<path class="st1" d="M306.9,107.6v-3.5h4.2v3.5H306.9z M311.2,109.9v15.5h-4.2v-15.5H311.2z"/>
	<path class="st1" d="M314.6,114.3c0.4-1,0.9-1.9,1.6-2.6c0.7-0.7,1.5-1.3,2.5-1.6c1-0.4,2.1-0.6,3.3-0.6c1.2,0,2.3,0.2,3.3,0.6
		c1,0.4,1.8,0.9,2.5,1.6s1.2,1.6,1.6,2.6c0.4,1,0.6,2.1,0.6,3.4s-0.2,2.4-0.6,3.4c-0.4,1-0.9,1.9-1.6,2.6s-1.5,1.3-2.5,1.6
		s-2.1,0.6-3.3,0.6c-1.2,0-2.3-0.2-3.3-0.6s-1.8-0.9-2.5-1.6c-0.7-0.7-1.2-1.6-1.6-2.6c-0.4-1-0.6-2.1-0.6-3.4
		S314.2,115.3,314.6,114.3z M318.5,119.5c0.1,0.6,0.3,1.1,0.6,1.6s0.7,0.8,1.2,1.1s1.1,0.4,1.8,0.4c0.7,0,1.3-0.1,1.8-0.4
		c0.5-0.3,0.9-0.7,1.2-1.1c0.3-0.5,0.5-1,0.6-1.6c0.1-0.6,0.2-1.2,0.2-1.8s-0.1-1.2-0.2-1.8c-0.1-0.6-0.3-1.1-0.6-1.6
		c-0.3-0.5-0.7-0.8-1.2-1.1c-0.5-0.3-1.1-0.4-1.8-0.4c-0.7,0-1.3,0.1-1.8,0.4c-0.5,0.3-0.9,0.7-1.2,1.1c-0.3,0.5-0.5,1-0.6,1.6
		c-0.1,0.6-0.2,1.2-0.2,1.8S318.3,118.9,318.5,119.5z"/>
	<path class="st1" d="M336.8,109.9v2.2h0.1c0.5-0.9,1.2-1.6,2.1-2c0.9-0.4,1.7-0.6,2.6-0.6c1.1,0,2.1,0.2,2.8,0.5
		c0.7,0.3,1.3,0.7,1.7,1.3s0.7,1.2,0.9,2c0.2,0.8,0.3,1.7,0.3,2.6v9.5h-4.2v-8.7c0-1.3-0.2-2.2-0.6-2.9c-0.4-0.6-1.1-0.9-2.1-0.9
		c-1.2,0-2,0.3-2.5,1c-0.5,0.7-0.8,1.8-0.8,3.4v8.1h-4.2v-15.5H336.8z"/>
	<path class="st1" d="M368.4,125.2c-1,0.4-2.1,0.6-3.3,0.6c-1,0-1.9-0.1-2.7-0.4c-0.8-0.3-1.6-0.7-2.2-1.2c-0.6-0.5-1.1-1.2-1.5-2
		c-0.4-0.8-0.5-1.7-0.5-2.7c0-0.8,0.1-1.5,0.4-2.1c0.3-0.6,0.6-1.2,1.1-1.7c0.4-0.5,1-1,1.5-1.4c0.6-0.4,1.2-0.7,1.8-1
		c-0.6-0.7-1.1-1.4-1.5-2.1c-0.4-0.7-0.6-1.5-0.6-2.5c0-0.7,0.2-1.4,0.5-2c0.3-0.6,0.7-1.1,1.2-1.5c0.5-0.4,1.1-0.8,1.8-1
		c0.7-0.2,1.4-0.3,2.1-0.3c0.8,0,1.6,0.1,2.3,0.3c0.7,0.2,1.3,0.5,1.9,1c0.5,0.4,0.9,1,1.3,1.6c0.3,0.6,0.5,1.4,0.5,2.2
		c0,1.3-0.4,2.3-1.1,3.2c-0.7,0.9-1.6,1.6-2.7,2.2l2.8,3.4c0.2-0.4,0.4-0.8,0.5-1.2c0.1-0.4,0.2-0.9,0.3-1.3h3.7
		c-0.1,1-0.3,1.9-0.7,2.8c-0.3,0.9-0.8,1.7-1.4,2.5l4.3,5.1h-5.2l-1.7-2.1C370.3,124.1,369.4,124.8,368.4,125.2z M364.1,116.6
		c-0.4,0.2-0.7,0.5-1,0.8s-0.5,0.6-0.7,1c-0.2,0.4-0.3,0.8-0.3,1.2c0,0.4,0.1,0.7,0.3,1.1c0.2,0.3,0.4,0.6,0.7,0.9
		c0.3,0.2,0.6,0.4,1,0.6s0.8,0.2,1.2,0.2c0.8,0,1.4-0.2,2-0.5c0.6-0.3,1.1-0.8,1.6-1.4l-3.7-4.5
		C364.9,116.2,364.5,116.3,364.1,116.6z M368.1,107.3c-0.4-0.4-0.8-0.6-1.4-0.6s-1,0.2-1.3,0.5c-0.4,0.3-0.6,0.8-0.6,1.4
		c0,0.7,0.2,1.3,0.5,1.7c0.4,0.5,0.7,1,1.1,1.5c0.6-0.4,1.1-0.8,1.5-1.2c0.4-0.4,0.6-1,0.6-1.8C368.7,108.1,368.5,107.7,368.1,107.3
		z"/>
	<path class="st1" d="M386.5,108v-4H404v4h-6.4v17.4h-4.7V108H386.5z"/>
	<path class="st1" d="M407.2,121.7c0.6,0.6,1.6,0.9,2.8,0.9c0.9,0,1.6-0.2,2.2-0.6c0.6-0.4,1-0.9,1.1-1.4h3.7
		c-0.6,1.9-1.5,3.2-2.8,4c-1.2,0.8-2.7,1.2-4.5,1.2c-1.2,0-2.3-0.2-3.3-0.6c-1-0.4-1.8-0.9-2.5-1.7c-0.7-0.7-1.2-1.6-1.6-2.6
		c-0.4-1-0.6-2.1-0.6-3.3c0-1.2,0.2-2.2,0.6-3.2c0.4-1,0.9-1.9,1.6-2.6c0.7-0.7,1.5-1.3,2.5-1.7c1-0.4,2-0.6,3.2-0.6
		c1.3,0,2.5,0.3,3.4,0.8s1.8,1.2,2.4,2c0.6,0.9,1.1,1.8,1.4,2.9c0.3,1.1,0.4,2.2,0.3,3.4h-11.2C406.2,120.1,406.5,121.1,407.2,121.7
		z M412,113.6c-0.5-0.6-1.3-0.8-2.3-0.8c-0.7,0-1.2,0.1-1.7,0.3c-0.4,0.2-0.8,0.5-1.1,0.9c-0.3,0.3-0.5,0.7-0.6,1.1
		c-0.1,0.4-0.2,0.7-0.2,1h6.9C412.9,114.9,412.5,114.1,412,113.6z"/>
	<path class="st1" d="M427.2,112.7c-0.7,0-1.2,0.2-1.7,0.5s-0.8,0.7-1.1,1.2c-0.3,0.5-0.5,1-0.6,1.6c-0.1,0.6-0.2,1.2-0.2,1.8
		c0,0.6,0.1,1.1,0.2,1.7c0.1,0.6,0.3,1.1,0.6,1.6s0.6,0.9,1.1,1.2c0.5,0.3,1,0.4,1.7,0.4c1,0,1.8-0.3,2.3-0.9c0.5-0.6,0.9-1.3,1-2.3
		h4.1c-0.3,2.1-1.1,3.6-2.4,4.7c-1.3,1.1-3,1.6-5.1,1.6c-1.2,0-2.2-0.2-3.2-0.6c-1-0.4-1.8-0.9-2.5-1.6c-0.7-0.7-1.2-1.5-1.6-2.5
		s-0.6-2-0.6-3.2c0-1.2,0.2-2.3,0.5-3.3c0.3-1,0.9-1.9,1.5-2.7c0.7-0.7,1.5-1.3,2.5-1.8s2.1-0.6,3.4-0.6c0.9,0,1.8,0.1,2.6,0.4
		c0.8,0.2,1.6,0.6,2.3,1.1c0.7,0.5,1.2,1.1,1.6,1.8c0.4,0.7,0.7,1.6,0.7,2.6h-4.2C430.1,113.6,429,112.7,427.2,112.7z"/>
	<path class="st1" d="M441.2,104.1v8h0.1c0.5-0.9,1.2-1.6,2.1-2c0.8-0.4,1.7-0.6,2.5-0.6c1.1,0,2.1,0.2,2.8,0.5s1.3,0.7,1.7,1.3
		s0.7,1.2,0.9,2c0.2,0.8,0.3,1.7,0.3,2.6v9.5h-4.2v-8.7c0-1.3-0.2-2.2-0.6-2.9c-0.4-0.6-1.1-0.9-2.1-0.9c-1.2,0-2,0.3-2.5,1
		s-0.8,1.8-0.8,3.4v8.1H437v-21.4H441.2z"/>
	<path class="st1" d="M458.8,109.9v2.2h0.1c0.5-0.9,1.2-1.6,2.1-2c0.9-0.4,1.7-0.6,2.6-0.6c1.1,0,2.1,0.2,2.8,0.5
		c0.7,0.3,1.3,0.7,1.7,1.3s0.7,1.2,0.9,2c0.2,0.8,0.3,1.7,0.3,2.6v9.5H465v-8.7c0-1.3-0.2-2.2-0.6-2.9c-0.4-0.6-1.1-0.9-2.1-0.9
		c-1.2,0-2,0.3-2.5,1c-0.5,0.7-0.8,1.8-0.8,3.4v8.1h-4.2v-15.5H458.8z"/>
	<path class="st1" d="M472.6,114.3c0.4-1,0.9-1.9,1.6-2.6s1.5-1.3,2.5-1.6c1-0.4,2.1-0.6,3.3-0.6s2.3,0.2,3.3,0.6
		c1,0.4,1.8,0.9,2.5,1.6s1.2,1.6,1.6,2.6c0.4,1,0.6,2.1,0.6,3.4s-0.2,2.4-0.6,3.4c-0.4,1-0.9,1.9-1.6,2.6s-1.5,1.3-2.5,1.6
		c-1,0.4-2.1,0.6-3.3,0.6s-2.3-0.2-3.3-0.6s-1.8-0.9-2.5-1.6s-1.2-1.6-1.6-2.6c-0.4-1-0.6-2.1-0.6-3.4S472.2,115.3,472.6,114.3z
		 M476.4,119.5c0.1,0.6,0.3,1.1,0.6,1.6c0.3,0.5,0.7,0.8,1.2,1.1c0.5,0.3,1.1,0.4,1.8,0.4c0.7,0,1.3-0.1,1.8-0.4s0.9-0.7,1.2-1.1
		s0.5-1,0.6-1.6c0.1-0.6,0.2-1.2,0.2-1.8s-0.1-1.2-0.2-1.8c-0.1-0.6-0.3-1.1-0.6-1.6c-0.3-0.5-0.7-0.8-1.2-1.1
		c-0.5-0.3-1.1-0.4-1.8-0.4c-0.7,0-1.3,0.1-1.8,0.4c-0.5,0.3-0.9,0.7-1.2,1.1c-0.3,0.5-0.5,1-0.6,1.6c-0.1,0.6-0.2,1.2-0.2,1.8
		S476.3,118.9,476.4,119.5z"/>
	<path class="st1" d="M495.1,104.1v21.4h-4.2v-21.4H495.1z"/>
	<path class="st1" d="M498.6,114.3c0.4-1,0.9-1.9,1.6-2.6c0.7-0.7,1.5-1.3,2.5-1.6c1-0.4,2.1-0.6,3.3-0.6c1.2,0,2.3,0.2,3.3,0.6
		c1,0.4,1.8,0.9,2.5,1.6s1.2,1.6,1.6,2.6c0.4,1,0.6,2.1,0.6,3.4s-0.2,2.4-0.6,3.4c-0.4,1-0.9,1.9-1.6,2.6s-1.5,1.3-2.5,1.6
		s-2.1,0.6-3.3,0.6c-1.2,0-2.3-0.2-3.3-0.6s-1.8-0.9-2.5-1.6c-0.7-0.7-1.2-1.6-1.6-2.6c-0.4-1-0.6-2.1-0.6-3.4
		S498.2,115.3,498.6,114.3z M502.4,119.5c0.1,0.6,0.3,1.1,0.6,1.6s0.7,0.8,1.2,1.1s1.1,0.4,1.8,0.4c0.7,0,1.3-0.1,1.8-0.4
		c0.5-0.3,0.9-0.7,1.2-1.1c0.3-0.5,0.5-1,0.6-1.6c0.1-0.6,0.2-1.2,0.2-1.8s-0.1-1.2-0.2-1.8c-0.1-0.6-0.3-1.1-0.6-1.6
		c-0.3-0.5-0.7-0.8-1.2-1.1c-0.5-0.3-1.1-0.4-1.8-0.4c-0.7,0-1.3,0.1-1.8,0.4c-0.5,0.3-0.9,0.7-1.2,1.1c-0.3,0.5-0.5,1-0.6,1.6
		c-0.1,0.6-0.2,1.2-0.2,1.8S502.3,118.9,502.4,119.5z"/>
	<path class="st1" d="M531.4,126.6c-0.2,0.8-0.5,1.5-1.1,2.2c-0.6,0.7-1.4,1.3-2.4,1.8c-1.1,0.5-2.5,0.7-4.2,0.7
		c-0.8,0-1.5-0.1-2.3-0.3c-0.8-0.2-1.5-0.5-2.2-0.9c-0.6-0.4-1.2-0.9-1.6-1.5c-0.4-0.6-0.7-1.4-0.7-2.3h4.2c0.2,0.8,0.6,1.4,1.2,1.7
		c0.6,0.3,1.2,0.5,2,0.5c1.2,0,2.1-0.4,2.6-1.1c0.5-0.7,0.8-1.6,0.8-2.7v-2h-0.1c-0.5,0.8-1.1,1.4-2,1.8c-0.8,0.4-1.7,0.6-2.7,0.6
		c-1.2,0-2.2-0.2-3-0.6c-0.8-0.4-1.5-1-2.1-1.7c-0.5-0.7-0.9-1.5-1.2-2.5c-0.2-0.9-0.4-2-0.4-3c0-1,0.1-2,0.4-2.9
		c0.3-0.9,0.7-1.7,1.3-2.5s1.3-1.3,2.1-1.7c0.8-0.4,1.8-0.6,2.9-0.6c1,0,1.9,0.2,2.7,0.6c0.8,0.4,1.4,1,1.9,1.9h0.1v-2.1h4v14.5
		C531.6,125.1,531.6,125.8,531.4,126.6z M525.6,121.4c0.5-0.2,0.8-0.6,1.1-1c0.3-0.4,0.5-0.9,0.7-1.4s0.2-1,0.2-1.6
		c0-0.6-0.1-1.2-0.2-1.8c-0.1-0.6-0.3-1.1-0.6-1.5s-0.6-0.8-1.1-1c-0.5-0.3-1-0.4-1.7-0.4c-0.6,0-1.1,0.1-1.5,0.4
		c-0.4,0.2-0.8,0.6-1.1,1c-0.3,0.4-0.5,0.9-0.6,1.4s-0.2,1.1-0.2,1.7c0,0.6,0.1,1.1,0.2,1.7c0.1,0.5,0.3,1,0.6,1.5
		c0.3,0.4,0.6,0.8,1.1,1.1c0.4,0.3,1,0.4,1.6,0.4C524.6,121.8,525.1,121.7,525.6,121.4z"/>
	<path class="st1" d="M540.8,130c-0.8,0.5-2,0.8-3.4,0.8c-0.4,0-0.9,0-1.3,0c-0.4,0-0.9-0.1-1.3-0.1v-3.5c0.4,0,0.8,0.1,1.2,0.1
		c0.4,0,0.8,0,1.3,0c0.6-0.1,1-0.3,1.2-0.7s0.4-0.8,0.4-1.3c0-0.3-0.1-0.7-0.2-1l-5.4-14.5h4.5l3.5,10.6h0.1l3.4-10.6h4.4l-6.5,17.4
		C542.2,128.6,541.6,129.5,540.8,130z"/>
</g>
<g class="st0">
	<path class="st2" d="M567.4,104.1v8.2h8.6v-8.2h4.7v21.4H576v-9.2h-8.6v9.2h-4.7v-21.4H567.4z"/>
	<path class="st2" d="M600.5,123.8c-1.6,1.4-3.9,2.1-6.7,2.1c-2.9,0-5.1-0.7-6.7-2.1s-2.4-3.6-2.4-6.5v-13.3h4.7v13.3
		c0,0.6,0,1.1,0.1,1.7s0.3,1.1,0.6,1.5c0.3,0.4,0.8,0.8,1.3,1c0.6,0.3,1.3,0.4,2.3,0.4c1.7,0,2.8-0.4,3.5-1.1s1-1.9,1-3.5v-13.3h4.7
		v13.3C603,120.2,602.2,122.4,600.5,123.8z"/>
	<path class="st2" d="M617.1,104.1c1,0,1.9,0.1,2.8,0.3s1.6,0.5,2.2,0.9c0.6,0.4,1.1,1,1.4,1.6c0.3,0.7,0.5,1.5,0.5,2.5
		c0,1.1-0.2,2-0.7,2.7s-1.2,1.3-2.2,1.8c1.3,0.4,2.3,1,2.9,2s1,2.1,1,3.4c0,1.1-0.2,2-0.6,2.8c-0.4,0.8-1,1.4-1.7,1.9
		c-0.7,0.5-1.5,0.9-2.4,1.1c-0.9,0.2-1.8,0.4-2.8,0.4H607v-21.4H617.1z M616.5,112.7c0.8,0,1.5-0.2,2.1-0.6c0.5-0.4,0.8-1,0.8-1.9
		c0-0.5-0.1-0.9-0.3-1.2c-0.2-0.3-0.4-0.6-0.7-0.7c-0.3-0.2-0.6-0.3-1-0.4c-0.4-0.1-0.8-0.1-1.2-0.1h-4.4v5H616.5z M616.7,121.8
		c0.5,0,0.9,0,1.3-0.1c0.4-0.1,0.8-0.2,1.1-0.4c0.3-0.2,0.6-0.5,0.8-0.9c0.2-0.4,0.3-0.8,0.3-1.4c0-1.1-0.3-1.9-0.9-2.3
		c-0.6-0.5-1.4-0.7-2.5-0.7h-5.1v5.9H616.7z"/>
</g>
<polygon class="st3" points="333,163.2 338.8,163.2 338.8,163.2 "/>
<circle class="st3" cx="94.8" cy="89.5" r="74.6"/>
<line class="st4" x1="89.9" y1="79" x2="90.2" y2="168"/>
<line class="st4" x1="114.2" y1="164.9" x2="114.2" y2="116.6"/>
<line class="st4" x1="134.1" y1="97.6" x2="113.5" y2="118.2"/>
<circle class="st4" cx="139.4" cy="92.3" r="8.6"/>
<line class="st4" x1="103" y1="167.5" x2="103" y2="99.7"/>
<line class="st4" x1="120.2" y1="83.4" x2="102.4" y2="101.3"/>
<line class="st4" x1="119.4" y1="58.3" x2="119.4" y2="85.3"/>
<circle class="st4" cx="119.4" cy="49.8" r="8.6"/>
<line class="st4" x1="72" y1="162.7" x2="72" y2="124"/>
<line class="st4" x1="72" y1="88" x2="72" y2="108.1"/>
<line class="st4" x1="58.6" y1="75.6" x2="72.8" y2="89.8"/>
<line class="st4" x1="49.6" y1="153.6" x2="49.6" y2="104.1"/>
<line class="st4" x1="133.1" y1="159" x2="133.1" y2="132.5"/>
<circle class="st4" cx="133.1" cy="124.6" r="8.6"/>
<circle class="st4" cx="89.8" cy="71.9" r="8.6"/>
<circle class="st4" cx="72" cy="116.6" r="8.6"/>
<circle class="st4" cx="54.1" cy="71.2" r="8.6"/>
<circle class="st4" cx="49.6" cy="98" r="8.6"/>
<circle class="st4" cx="94.8" cy="89.5" r="78.5"/>
<g class="st5">
	<path class="st1" d="M230,85.7l-0.5-7.6h-0.1c-0.7,1.5-1.6,2.8-2.6,3.8c-1,1.1-2.2,1.9-3.4,2.6c-1.2,0.7-2.6,1.2-4,1.5
		c-1.4,0.3-2.9,0.5-4.4,0.5c-3.3,0-6.1-0.6-8.6-1.8c-2.5-1.2-4.5-2.8-6.2-4.8s-2.9-4.3-3.7-6.9c-0.8-2.6-1.2-5.4-1.2-8.2
		c0-2.9,0.4-5.6,1.2-8.2c0.8-2.6,2-4.9,3.7-6.9c1.6-2,3.7-3.6,6.2-4.8c2.5-1.2,5.3-1.8,8.6-1.8c2.2,0,4.2,0.3,6.2,0.9
		c1.9,0.6,3.7,1.5,5.2,2.6c1.5,1.2,2.8,2.6,3.9,4.3s1.8,3.7,2.2,6h-4c-0.1-1.2-0.5-2.4-1.2-3.7c-0.7-1.2-1.6-2.3-2.7-3.4
		c-1.1-1-2.5-1.8-4.1-2.5c-1.6-0.6-3.4-1-5.4-1c-2.8,0-5.1,0.5-7.1,1.6c-2,1.1-3.6,2.4-4.9,4.2c-1.3,1.7-2.2,3.7-2.8,5.9
		c-0.6,2.2-0.9,4.4-0.9,6.7c0,2.3,0.3,4.5,0.9,6.7c0.6,2.2,1.5,4.2,2.8,5.9c1.3,1.7,2.9,3.1,4.9,4.2c2,1.1,4.4,1.6,7.1,1.6
		c2.3,0,4.4-0.4,6.2-1.1c1.8-0.8,3.3-1.8,4.6-3.2c1.2-1.4,2.2-3,2.8-4.8c0.6-1.9,0.9-3.9,0.9-6.1h-14.2v-3.4h17.7v21.2H230z"/>
	<path class="st1" d="M257.2,44l16.4,41.7h-4.3l-5.1-13h-19l-5,13H236L252.8,44H257.2z M262.9,69.4L254.8,48l-8.4,21.4H262.9z"/>
	<path class="st1" d="M296.5,44c1.7,0,3.3,0.2,4.9,0.6c1.5,0.4,2.9,1.1,4,2c1.1,0.9,2.1,2,2.7,3.4c0.7,1.4,1,3,1,4.9
		c0,2.6-0.7,4.9-2,6.9c-1.4,1.9-3.4,3.2-6.1,3.7v0.1c1.4,0.2,2.5,0.6,3.4,1.1c0.9,0.5,1.6,1.2,2.2,2c0.6,0.8,1,1.8,1.2,2.8
		c0.3,1.1,0.4,2.2,0.5,3.5c0,0.7,0.1,1.6,0.1,2.6c0,1,0.1,2,0.2,3.1c0.1,1,0.3,2,0.6,2.9c0.3,0.9,0.6,1.6,1,2.1h-4.4
		c-0.2-0.4-0.4-0.9-0.6-1.4c-0.1-0.6-0.2-1.1-0.3-1.8c-0.1-0.6-0.1-1.2-0.1-1.8c0-0.6-0.1-1.1-0.1-1.5c-0.1-1.5-0.2-3-0.4-4.4
		c-0.2-1.5-0.5-2.8-1.1-3.9c-0.6-1.1-1.4-2.1-2.5-2.8s-2.5-1-4.4-0.9h-15.1v18.5h-4V44H296.5z M296.2,63.8c1.2,0,2.4-0.2,3.4-0.6
		c1.1-0.4,2-0.9,2.9-1.6c0.8-0.7,1.5-1.5,2-2.5c0.5-1,0.7-2.1,0.7-3.4c0-2.6-0.7-4.6-2.2-6.1c-1.5-1.5-3.7-2.2-6.8-2.2h-14.8v16.4
		H296.2z"/>
	<path class="st1" d="M330.8,44c6.3,0.2,11.1,1.9,14.3,5.3c3.2,3.4,4.8,8.6,4.8,15.5c0,6.9-1.6,12.1-4.8,15.5
		c-3.2,3.4-8,5.2-14.3,5.3h-14.4V44H330.8z M328.8,82.3c3,0,5.6-0.3,7.7-1c2.2-0.6,3.9-1.7,5.3-3.1s2.4-3.2,3.1-5.4
		c0.7-2.2,1-4.9,1-8s-0.3-5.8-1-8c-0.7-2.2-1.7-4-3.1-5.4s-3.2-2.4-5.3-3.1c-2.2-0.6-4.7-1-7.7-1h-8.5v34.9H328.8z"/>
	<path class="st1" d="M385.1,44v3.4h-24.8v15.1h23.3v3.4h-23.3v16.5h25.1v3.4h-29.1V44H385.1z"/>
	<path class="st1" d="M395.4,44l24.3,35.3h0.1V44h4v41.7h-4.4L395,50.4h-0.1v35.3h-4V44H395.4z"/>
	<path class="st1" d="M467.5,44c1.7,0,3.3,0.2,4.9,0.6c1.5,0.4,2.9,1.1,4,2c1.1,0.9,2.1,2,2.7,3.4c0.7,1.4,1,3,1,4.9
		c0,2.6-0.7,4.9-2,6.9c-1.4,1.9-3.4,3.2-6.1,3.7v0.1c1.4,0.2,2.5,0.6,3.4,1.1c0.9,0.5,1.6,1.2,2.2,2c0.6,0.8,1,1.8,1.2,2.8
		c0.3,1.1,0.4,2.2,0.5,3.5c0,0.7,0.1,1.6,0.1,2.6c0,1,0.1,2,0.2,3.1s0.3,2,0.6,2.9c0.3,0.9,0.6,1.6,1,2.1h-4.4
		c-0.2-0.4-0.4-0.9-0.6-1.4c-0.1-0.6-0.2-1.1-0.3-1.8c-0.1-0.6-0.1-1.2-0.1-1.8c0-0.6-0.1-1.1-0.1-1.5c-0.1-1.5-0.2-3-0.4-4.4
		c-0.2-1.5-0.5-2.8-1.1-3.9c-0.6-1.1-1.4-2.1-2.5-2.8c-1.1-0.7-2.5-1-4.4-0.9h-15.1v18.5h-4V44H467.5z M467.2,63.8
		c1.2,0,2.4-0.2,3.4-0.6s2-0.9,2.9-1.6s1.5-1.5,2-2.5s0.7-2.1,0.7-3.4c0-2.6-0.7-4.6-2.2-6.1c-1.5-1.5-3.7-2.2-6.8-2.2h-14.8v16.4
		H467.2z"/>
	<path class="st1" d="M486.3,56.6c0.8-2.6,2-4.9,3.7-6.9c1.6-2,3.7-3.6,6.2-4.8c2.5-1.2,5.3-1.8,8.6-1.8c3.3,0,6.1,0.6,8.6,1.8
		c2.5,1.2,4.5,2.8,6.1,4.8c1.6,2,2.9,4.3,3.7,6.9c0.8,2.6,1.2,5.4,1.2,8.2c0,2.9-0.4,5.6-1.2,8.2c-0.8,2.6-2,4.9-3.7,6.9
		c-1.6,2-3.7,3.6-6.1,4.8c-2.5,1.2-5.3,1.8-8.6,1.8c-3.3,0-6.1-0.6-8.6-1.8c-2.5-1.2-4.5-2.8-6.2-4.8c-1.6-2-2.9-4.3-3.7-6.9
		c-0.8-2.6-1.2-5.4-1.2-8.2C485.1,62,485.5,59.2,486.3,56.6z M490,71.5c0.6,2.2,1.5,4.2,2.8,5.9c1.3,1.7,2.9,3.1,4.9,4.2
		s4.4,1.6,7.1,1.6s5.1-0.5,7.1-1.6c2-1.1,3.6-2.4,4.8-4.2c1.3-1.7,2.2-3.7,2.8-5.9c0.6-2.2,0.9-4.4,0.9-6.7c0-2.3-0.3-4.5-0.9-6.7
		c-0.6-2.2-1.5-4.1-2.8-5.9c-1.3-1.7-2.9-3.1-4.8-4.2c-2-1.1-4.3-1.6-7.1-1.6s-5.1,0.5-7.1,1.6s-3.6,2.4-4.9,4.2
		c-1.3,1.7-2.2,3.7-2.8,5.9c-0.6,2.2-0.9,4.4-0.9,6.7C489.1,67.1,489.4,69.3,490,71.5z"/>
	<path class="st1" d="M534.2,44v25.8c0,2.4,0.3,4.5,0.8,6.2c0.5,1.7,1.3,3.1,2.4,4.1c1.1,1.1,2.3,1.9,3.9,2.3
		c1.5,0.5,3.2,0.7,5.1,0.7c1.9,0,3.7-0.2,5.2-0.7c1.5-0.5,2.8-1.3,3.9-2.3c1.1-1.1,1.8-2.5,2.4-4.1c0.5-1.7,0.8-3.7,0.8-6.2V44h4
		v26.7c0,2.1-0.3,4.2-0.9,6.1c-0.6,1.9-1.6,3.6-2.9,5.1c-1.3,1.4-3,2.6-5,3.4c-2,0.8-4.5,1.3-7.5,1.3c-2.9,0-5.3-0.4-7.4-1.3
		c-2-0.8-3.7-2-5-3.4c-1.3-1.4-2.3-3.1-2.9-5.1c-0.6-1.9-0.9-4-0.9-6.1V44H534.2z"/>
	<path class="st1" d="M599.2,44v3.4h-14.5v38.3h-4V47.4h-14.5V44H599.2z"/>
	<path class="st1" d="M631.9,44v3.4h-24.8v15.1h23.3v3.4h-23.3v16.5h25.1v3.4h-29.1V44H631.9z"/>
</g>
<g id="color_copy" class="st6">
	<text transform="matrix(1 0 0 1 199.2947 125.4209)" class="st7 st8 st9">Innovation &amp; Technology </text>
	<text transform="matrix(1 0 0 1 560.5947 125.4209)" class="st10 st8 st9">HUB</text>
	<polygon class="st11" points="333,163.2 338.8,163.2 338.8,163.2 	"/>
	<circle class="st12" cx="94.8" cy="89.5" r="74.6"/>
	<line class="st13" x1="89.9" y1="79" x2="90.2" y2="168"/>
	<line class="st13" x1="114.2" y1="164.9" x2="114.2" y2="116.6"/>
	<line class="st13" x1="134.1" y1="97.6" x2="113.5" y2="118.2"/>
	<circle class="st13" cx="139.4" cy="92.3" r="8.6"/>
	<line class="st13" x1="103" y1="167.5" x2="103" y2="99.7"/>
	<line class="st13" x1="120.2" y1="83.4" x2="102.4" y2="101.3"/>
	<line class="st13" x1="119.4" y1="58.3" x2="119.4" y2="85.3"/>
	<circle class="st13" cx="119.4" cy="49.8" r="8.6"/>
	<line class="st13" x1="72" y1="162.7" x2="72" y2="124"/>
	<line class="st13" x1="72" y1="88" x2="72" y2="108.1"/>
	<line class="st13" x1="58.6" y1="75.6" x2="72.8" y2="89.8"/>
	<line class="st13" x1="49.6" y1="153.6" x2="49.6" y2="104.1"/>
	<line class="st13" x1="133.1" y1="159" x2="133.1" y2="132.5"/>
	<circle class="st13" cx="133.1" cy="124.6" r="8.6"/>
	<circle class="st13" cx="89.8" cy="71.9" r="8.6"/>
	<circle class="st13" cx="72" cy="116.6" r="8.6"/>
	<circle class="st13" cx="54.1" cy="71.2" r="8.6"/>
	<circle class="st13" cx="49.6" cy="98" r="8.6"/>
	<circle class="st13" cx="94.8" cy="89.5" r="78.5"/>
	<text transform="matrix(1 0 0 1 200.9553 85.7132)" class="st14 st15 st16">GARDEN ROUTE</text>
</g>
<g id="black" class="st6">
	<text transform="matrix(1 0 0 1 199.2947 125.4209)" class="st17 st8 st9">Innovation &amp; Technology HUB</text>
	<polygon class="st11" points="333,163.2 338.8,163.2 338.8,163.2 	"/>
	<circle class="st18" cx="94.8" cy="89.5" r="74.6"/>
	<line class="st19" x1="89.9" y1="79" x2="90.2" y2="168"/>
	<line class="st19" x1="114.2" y1="164.9" x2="114.2" y2="116.6"/>
	<line class="st19" x1="134.1" y1="97.6" x2="113.5" y2="118.2"/>
	<circle class="st19" cx="139.4" cy="92.3" r="8.6"/>
	<line class="st19" x1="103" y1="167.5" x2="103" y2="99.7"/>
	<line class="st19" x1="120.2" y1="83.4" x2="102.4" y2="101.3"/>
	<line class="st19" x1="119.4" y1="58.3" x2="119.4" y2="85.3"/>
	<circle class="st19" cx="119.4" cy="49.8" r="8.6"/>
	<line class="st19" x1="72" y1="162.7" x2="72" y2="124"/>
	<line class="st19" x1="72" y1="88" x2="72" y2="108.1"/>
	<line class="st19" x1="58.6" y1="75.6" x2="72.8" y2="89.8"/>
	<line class="st19" x1="49.6" y1="153.6" x2="49.6" y2="104.1"/>
	<line class="st19" x1="133.1" y1="159" x2="133.1" y2="132.5"/>
	<circle class="st19" cx="133.1" cy="124.6" r="8.6"/>
	<circle class="st19" cx="89.8" cy="71.9" r="8.6"/>
	<circle class="st19" cx="72" cy="116.6" r="8.6"/>
	<circle class="st19" cx="54.1" cy="71.2" r="8.6"/>
	<circle class="st19" cx="49.6" cy="98" r="8.6"/>
	<circle class="st19" cx="94.8" cy="89.5" r="78.5"/>
	<text transform="matrix(1 0 0 1 200.9553 85.7132)" class="st20 st15 st16">GARDEN ROUTE</text>
</g>
</svg>
