<?xml version="1.0" encoding="utf-8"?>
<!-- Generator: Adobe Illustrator 25.1.0, SVG Export Plug-In . SVG Version: 6.00 Build 0)  -->
<svg version="1.1" id="Layer_1" xmlns="http://www.w3.org/2000/svg" xmlns:xlink="http://www.w3.org/1999/xlink" x="0px" y="0px"
	 viewBox="0 0 165 165" enable-background="new 0 0 165 165" xml:space="preserve">
<circle fill="#FFFFFF" cx="82.7" cy="82" r="74.5"/>
<line fill="none" stroke="#E92938" stroke-width="5" stroke-miterlimit="10" x1="78.7" y1="71.5" x2="79" y2="160.5"/>
<line fill="none" stroke="#E92938" stroke-width="5" stroke-miterlimit="10" x1="102.7" y1="157.5" x2="102.7" y2="109.5"/>
<line fill="none" stroke="#E92938" stroke-width="5" stroke-miterlimit="10" x1="122.4" y1="90.5" x2="101.9" y2="111.1"/>
<circle fill="none" stroke="#E92938" stroke-width="5" stroke-miterlimit="10" cx="128.2" cy="85.5" r="8.5"/>
<line fill="none" stroke="#E92938" stroke-width="5" stroke-miterlimit="10" x1="91.7" y1="160.5" x2="91.7" y2="92.5"/>
<line fill="none" stroke="#E92938" stroke-width="5" stroke-miterlimit="10" x1="108.6" y1="76.2" x2="90.7" y2="94.1"/>
<line fill="none" stroke="#E92938" stroke-width="5" stroke-miterlimit="10" x1="107.7" y1="51.5" x2="107.7" y2="78.5"/>
<circle fill="none" stroke="#E92938" stroke-width="5" stroke-miterlimit="10" cx="108.2" cy="42.5" r="8.5"/>
<line fill="none" stroke="#E92938" stroke-width="5" stroke-miterlimit="10" x1="60.7" y1="155.5" x2="60.7" y2="116.5"/>
<line fill="none" stroke="#E92938" stroke-width="5" stroke-miterlimit="10" x1="60.7" y1="80.5" x2="60.7" y2="100.5"/>
<line fill="none" stroke="#E92938" stroke-width="5" stroke-miterlimit="10" x1="46.9" y1="68.5" x2="61.1" y2="82.7"/>
<line fill="none" stroke="#E92938" stroke-width="5" stroke-miterlimit="10" x1="37.7" y1="146.5" x2="37.7" y2="97.5"/>
<line fill="none" stroke="#E92938" stroke-width="5" stroke-miterlimit="10" x1="121.7" y1="151.5" x2="121.7" y2="125.5"/>
<circle fill="none" stroke="#E92938" stroke-width="5" stroke-miterlimit="10" cx="121.2" cy="117.5" r="8.5"/>
<circle fill="none" stroke="#E92938" stroke-width="5" stroke-miterlimit="10" cx="78.2" cy="64.5" r="8.5"/>
<circle fill="none" stroke="#E92938" stroke-width="5" stroke-miterlimit="10" cx="60.2" cy="109.5" r="8.5"/>
<circle fill="none" stroke="#E92938" stroke-width="5" stroke-miterlimit="10" cx="42.2" cy="64.5" r="8.5"/>
<circle fill="none" stroke="#E92938" stroke-width="5" stroke-miterlimit="10" cx="38.2" cy="90.5" r="8.5"/>
<circle fill="none" stroke="#E92938" stroke-width="5" stroke-miterlimit="10" cx="83.2" cy="82.5" r="78.5"/>
</svg>
