<?xml version="1.0" encoding="UTF-8"?><svg id="a" xmlns="http://www.w3.org/2000/svg" viewBox="0 0 238.45 225.66"><g fill="none" isolation="isolate"><g fill="none" isolation="isolate"><path d="m21.97,198.45l-.27-3.92h-.06c-.36.76-.81,1.42-1.34,1.97-.53.55-1.12,1-1.76,1.36-.64.35-1.33.61-2.06.77s-1.49.24-2.27.24c-1.69,0-3.17-.31-4.44-.92-1.28-.61-2.33-1.43-3.18-2.46s-1.48-2.21-1.9-3.55-.63-2.76-.63-4.25.21-2.9.63-4.25c.42-1.35,1.05-2.54,1.9-3.57.84-1.03,1.9-1.86,3.18-2.47,1.28-.61,2.76-.92,4.44-.92,1.12,0,2.19.15,3.19.45,1,.3,1.9.75,2.68,1.36.78.6,1.45,1.35,1.99,2.23s.91,1.92,1.11,3.1h-2.05c-.06-.62-.27-1.25-.62-1.88-.35-.63-.82-1.21-1.42-1.73-.59-.52-1.3-.95-2.12-1.28-.82-.33-1.75-.5-2.77-.5-1.43,0-2.65.27-3.68.81-1.02.54-1.86,1.26-2.52,2.15-.65.89-1.13,1.9-1.45,3.03-.31,1.13-.47,2.28-.47,3.47s.16,2.31.47,3.45.79,2.15,1.45,3.04c.65.89,1.49,1.61,2.52,2.15,1.02.54,2.25.81,3.68.81,1.18,0,2.24-.2,3.18-.59s1.72-.94,2.37-1.64c.64-.7,1.12-1.54,1.45-2.5.32-.96.47-2.02.45-3.16h-7.32v-1.75h9.13v10.94h-1.48Z" fill="#444"/><path d="m35.98,176.94l8.44,21.51h-2.2l-2.62-6.69h-9.79l-2.59,6.69h-2.17l8.65-21.51h2.29Zm2.92,13.08l-4.16-11.03-4.31,11.03h8.47Z" fill="#444"/><path d="m56.23,176.94c.88,0,1.72.11,2.52.33.79.22,1.49.56,2.08,1.01.59.45,1.06,1.04,1.42,1.75.35.71.53,1.55.53,2.52,0,1.37-.35,2.55-1.05,3.55-.7,1-1.75,1.65-3.13,1.93v.06c.7.1,1.29.29,1.75.56.46.27.84.62,1.13,1.04.29.42.5.91.63,1.46.13.55.22,1.15.26,1.79.02.36.04.8.06,1.33.02.52.06,1.05.12,1.58.06.53.16,1.04.29,1.51.13.47.31.84.53,1.1h-2.26c-.12-.2-.22-.45-.29-.74-.07-.29-.12-.59-.15-.9-.03-.31-.06-.62-.08-.92-.02-.3-.04-.56-.06-.78-.04-.76-.11-1.52-.2-2.27s-.28-1.43-.57-2.02-.71-1.07-1.27-1.43c-.55-.36-1.31-.52-2.27-.48h-7.77v9.55h-2.05v-21.51h9.85Zm-.15,10.21c.62,0,1.22-.09,1.78-.29.56-.19,1.05-.47,1.48-.83.42-.36.76-.8,1.01-1.31.25-.51.38-1.1.38-1.76,0-1.33-.38-2.37-1.15-3.13-.76-.76-1.93-1.15-3.5-1.15h-7.65v8.47h7.65Z" fill="#444"/><path d="m73.92,176.94c3.27.08,5.74,1,7.4,2.76s2.49,4.42,2.49,8-.83,6.24-2.49,8-4.12,2.68-7.4,2.76h-7.44v-21.51h7.44Zm-1.02,19.77c1.55,0,2.88-.17,3.99-.5,1.11-.33,2.03-.86,2.76-1.58.72-.72,1.26-1.66,1.6-2.8.34-1.14.51-2.52.51-4.13s-.17-2.98-.51-4.13c-.34-1.15-.87-2.08-1.6-2.8-.72-.72-1.64-1.25-2.76-1.58-1.11-.33-2.45-.5-3.99-.5h-4.37v18.02h4.37Z" fill="#444"/><path d="m101.97,176.94v1.75h-12.81v7.77h11.99v1.75h-11.99v8.5h12.96v1.75h-15v-21.51h14.85Z" fill="#444"/><path d="m107.24,176.94l12.53,18.2h.06v-18.2h2.05v21.51h-2.29l-12.53-18.2h-.06v18.2h-2.05v-21.51h2.29Z" fill="#444"/><path d="m144.42,176.94c.88,0,1.72.11,2.52.33.79.22,1.49.56,2.08,1.01s1.06,1.04,1.42,1.75c.35.71.53,1.55.53,2.52,0,1.37-.35,2.55-1.05,3.55-.7,1-1.75,1.65-3.13,1.93v.06c.7.1,1.29.29,1.75.56.46.27.84.62,1.13,1.04.29.42.5.91.63,1.46.13.55.22,1.15.26,1.79.02.36.04.8.06,1.33.02.52.06,1.05.12,1.58s.16,1.04.29,1.51c.13.47.31.84.53,1.1h-2.26c-.12-.2-.22-.45-.29-.74-.07-.29-.12-.59-.15-.9-.03-.31-.06-.62-.08-.92-.02-.3-.04-.56-.06-.78-.04-.76-.11-1.52-.2-2.27-.09-.75-.28-1.43-.57-2.02s-.71-1.07-1.27-1.43c-.55-.36-1.31-.52-2.27-.48h-7.77v9.55h-2.05v-21.51h9.85Zm-.15,10.21c.62,0,1.21-.09,1.78-.29.56-.19,1.05-.47,1.48-.83.42-.36.76-.8,1.01-1.31.25-.51.38-1.1.38-1.76,0-1.33-.38-2.37-1.15-3.13s-1.93-1.15-3.49-1.15h-7.65v8.47h7.65Z" fill="#444"/><path d="m154.15,183.44c.42-1.35,1.05-2.54,1.9-3.57.84-1.03,1.9-1.86,3.18-2.47,1.28-.61,2.76-.92,4.44-.92s3.16.31,4.43.92c1.27.61,2.32,1.44,3.16,2.47.84,1.04,1.48,2.22,1.9,3.57.42,1.35.63,2.76.63,4.25s-.21,2.9-.63,4.25-1.05,2.53-1.9,3.55c-.84,1.02-1.9,1.84-3.16,2.46s-2.74.92-4.43.92-3.17-.31-4.44-.92c-1.28-.61-2.34-1.43-3.18-2.46-.84-1.02-1.48-2.21-1.9-3.55s-.63-2.76-.63-4.25.21-2.9.63-4.25Zm1.88,7.7c.31,1.13.79,2.15,1.45,3.04.65.89,1.49,1.61,2.52,2.15,1.03.54,2.25.81,3.68.81s2.65-.27,3.66-.81c1.01-.54,1.85-1.26,2.5-2.15.65-.89,1.13-1.91,1.45-3.04s.47-2.28.47-3.45-.16-2.34-.47-3.47c-.31-1.12-.79-2.13-1.45-3.03-.65-.89-1.49-1.61-2.5-2.15-1.01-.54-2.24-.81-3.66-.81s-2.65.27-3.68.81c-1.02.54-1.86,1.26-2.52,2.15s-1.13,1.9-1.45,3.03c-.31,1.13-.47,2.28-.47,3.47s.16,2.31.47,3.45Z" fill="#444"/><path d="m178.83,176.94v13.32c0,1.25.14,2.3.42,3.18.28.87.69,1.59,1.23,2.14.54.55,1.21.95,1.99,1.21.78.25,1.67.38,2.65.38s1.9-.12,2.68-.38,1.45-.65,1.99-1.21.95-1.27,1.24-2.14c.28-.87.42-1.93.42-3.18v-13.32h2.05v13.77c0,1.1-.16,2.15-.47,3.15-.31.99-.8,1.86-1.48,2.61s-1.54,1.33-2.59,1.76-2.34.65-3.84.65-2.76-.22-3.81-.65c-1.05-.43-1.92-1.02-2.59-1.76-.67-.74-1.17-1.61-1.48-2.61-.31-.99-.47-2.04-.47-3.15v-13.77h2.05Z" fill="#444"/><path d="m212.36,176.94v1.75h-7.5v19.77h-2.05v-19.77h-7.47v-1.75h17.02Z" fill="#444"/><path d="m229.23,176.94v1.75h-12.8v7.77h11.99v1.75h-11.99v8.5h12.96v1.75h-15v-21.51h14.85Z" fill="#444"/></g><g fill="none" isolation="isolate"><path d="m2.62,207.24v12.91h-1.23v-12.91h1.23Z" fill="#444"/><path d="m6.22,210.82v1.61h.04c.22-.57.6-1.02,1.16-1.36s1.16-.52,1.83-.52,1.2.08,1.64.25c.44.17.79.41,1.06.71.27.31.45.68.56,1.13.11.45.16.95.16,1.5v6h-1.14v-5.82c0-.4-.04-.77-.11-1.11-.07-.34-.2-.64-.38-.9-.18-.25-.42-.45-.73-.6-.31-.15-.69-.22-1.15-.22s-.87.08-1.22.24c-.36.16-.66.39-.9.67s-.44.62-.58,1.01c-.14.39-.21.82-.23,1.27v5.44h-1.14v-9.33h1.14Z" fill="#444"/><path d="m15.93,210.82v1.61h.04c.22-.57.6-1.02,1.16-1.36s1.16-.52,1.83-.52,1.2.08,1.64.25c.44.17.79.41,1.06.71.27.31.45.68.56,1.13.11.45.16.95.16,1.5v6h-1.14v-5.82c0-.4-.04-.77-.11-1.11-.07-.34-.2-.64-.38-.9-.18-.25-.42-.45-.73-.6-.31-.15-.69-.22-1.15-.22s-.87.08-1.22.24c-.36.16-.66.39-.9.67s-.44.62-.58,1.01c-.14.39-.21.82-.23,1.27v5.44h-1.14v-9.33h1.14Z" fill="#444"/><path d="m30.34,210.95c.55.26,1.01.62,1.38,1.07.37.45.66.97.85,1.56.19.6.29,1.23.29,1.91s-.1,1.31-.29,1.91c-.19.6-.48,1.12-.85,1.56-.37.45-.83.8-1.38,1.06-.55.26-1.18.39-1.89.39s-1.34-.13-1.89-.39c-.55-.26-1.01-.61-1.38-1.06-.37-.45-.66-.97-.85-1.56s-.29-1.23-.29-1.91.1-1.31.29-1.91.48-1.12.85-1.56c.37-.45.83-.8,1.38-1.07.55-.27,1.18-.4,1.89-.4s1.34.13,1.89.4Zm-3.32.9c-.41.23-.75.53-1.02.9-.27.37-.48.8-.61,1.27-.14.48-.21.96-.21,1.46s.07.98.21,1.46c.14.48.34.9.61,1.27.27.37.61.68,1.02.9.41.23.89.34,1.43.34s1.02-.12,1.43-.34.75-.53,1.02-.9c.27-.37.48-.8.61-1.27.14-.48.21-.96.21-1.46s-.07-.98-.21-1.46c-.14-.48-.34-.9-.61-1.27-.27-.37-.61-.67-1.02-.9-.41-.23-.89-.34-1.43-.34s-1.02.12-1.43.34Z" fill="#444"/><path d="m34.78,210.82l2.93,8.19h.04l2.89-8.19h1.18l-3.49,9.33h-1.21l-3.6-9.33h1.27Z" fill="#444"/><path d="m43.17,212.27c.19-.4.45-.72.79-.98s.72-.44,1.17-.56c.45-.12.94-.18,1.48-.18.41,0,.82.04,1.23.12.41.08.78.23,1.1.44.33.22.59.52.8.91s.31.9.31,1.53v4.95c0,.46.22.69.67.69.13,0,.25-.02.36-.07v.96c-.13.02-.25.04-.35.05-.1.01-.23.02-.39.02-.29,0-.52-.04-.7-.12-.17-.08-.31-.19-.41-.33-.1-.14-.16-.32-.19-.51-.03-.2-.05-.42-.05-.66h-.04c-.21.3-.41.57-.62.8-.21.23-.45.43-.71.59-.26.16-.55.28-.89.36-.33.08-.73.13-1.18.13-.43,0-.84-.05-1.22-.15-.38-.1-.71-.26-.99-.49-.28-.22-.51-.51-.67-.85-.16-.34-.24-.75-.24-1.22,0-.65.14-1.16.43-1.53.29-.37.67-.65,1.15-.84.48-.19,1.01-.33,1.61-.41.6-.08,1.2-.15,1.82-.23.24-.02.45-.05.63-.09s.33-.1.45-.19c.12-.09.21-.21.28-.37.07-.16.1-.36.1-.61,0-.39-.06-.7-.19-.95-.13-.25-.3-.44-.52-.59-.22-.14-.48-.24-.78-.3-.3-.05-.61-.08-.95-.08-.72,0-1.31.17-1.77.52-.46.34-.7.89-.72,1.65h-1.14c.04-.54.15-1.01.34-1.41Zm5.69,2.78c-.07.13-.21.23-.42.29-.21.06-.39.1-.54.13-.48.08-.98.16-1.49.23s-.98.17-1.4.3c-.42.13-.77.32-1.04.57-.27.25-.41.6-.41,1.06,0,.29.06.55.17.77.11.22.27.42.46.58.19.16.42.29.67.37s.51.13.78.13c.43,0,.85-.07,1.25-.2.4-.13.74-.33,1.04-.58.3-.25.53-.56.71-.92.17-.36.26-.77.26-1.23v-1.48h-.04Z" fill="#444"/><path d="m56.02,210.82v.96h-1.9v6.29c0,.37.05.67.15.88s.36.33.77.35c.33,0,.65-.02.98-.05v.96c-.17,0-.34,0-.51.02-.17.01-.34.02-.51.02-.76,0-1.29-.15-1.59-.44-.3-.29-.45-.84-.43-1.64v-6.38h-1.63v-.96h1.63v-2.8h1.14v2.8h1.9Z" fill="#444"/><path d="m58.82,207.24v1.83h-1.14v-1.83h1.14Zm0,3.58v9.33h-1.14v-9.33h1.14Z" fill="#444"/><path d="m66.84,210.95c.55.26,1.01.62,1.38,1.07.37.45.66.97.85,1.56.19.6.29,1.23.29,1.91s-.1,1.31-.29,1.91c-.19.6-.48,1.12-.85,1.56-.37.45-.83.8-1.38,1.06-.55.26-1.18.39-1.89.39s-1.34-.13-1.89-.39c-.55-.26-1.01-.61-1.38-1.06-.37-.45-.66-.97-.85-1.56s-.29-1.23-.29-1.91.1-1.31.29-1.91.48-1.12.85-1.56c.37-.45.83-.8,1.38-1.07.55-.27,1.18-.4,1.89-.4s1.34.13,1.89.4Zm-3.32.9c-.41.23-.75.53-1.02.9-.27.37-.48.8-.61,1.27-.14.48-.21.96-.21,1.46s.07.98.21,1.46c.14.48.34.9.61,1.27.27.37.61.68,1.02.9.41.23.89.34,1.43.34s1.02-.12,1.43-.34.75-.53,1.02-.9c.27-.37.48-.8.61-1.27.14-.48.21-.96.21-1.46s-.07-.98-.21-1.46c-.14-.48-.34-.9-.61-1.27-.27-.37-.61-.67-1.02-.9-.41-.23-.89-.34-1.43-.34s-1.02.12-1.43.34Z" fill="#444"/><path d="m72.18,210.82v1.61h.04c.22-.57.6-1.02,1.16-1.36s1.16-.52,1.83-.52,1.2.08,1.64.25c.44.17.79.41,1.06.71.27.31.45.68.56,1.13.11.45.16.95.16,1.5v6h-1.14v-5.82c0-.4-.04-.77-.11-1.11-.07-.34-.2-.64-.38-.9-.18-.25-.42-.45-.73-.6-.31-.15-.69-.22-1.15-.22s-.87.08-1.22.24c-.36.16-.66.39-.9.67s-.44.62-.58,1.01c-.14.39-.21.82-.23,1.27v5.44h-1.14v-9.33h1.14Z" fill="#444"/><path d="m91.44,219.88c-.65.35-1.36.52-2.12.52-.55,0-1.07-.08-1.55-.23-.48-.16-.89-.39-1.24-.69-.35-.3-.62-.67-.82-1.12-.2-.45-.3-.96-.3-1.55,0-.46.1-.88.29-1.27.19-.38.44-.73.75-1.05.31-.31.65-.6,1.02-.85.37-.25.74-.48,1.1-.67-.18-.23-.36-.46-.55-.7-.19-.24-.36-.48-.51-.73-.15-.25-.28-.52-.38-.79-.1-.28-.15-.57-.15-.89,0-.4.08-.76.23-1.08.15-.32.36-.59.61-.82.26-.23.56-.41.9-.53.34-.13.71-.19,1.11-.19s.77.06,1.11.19c.34.13.64.3.9.53.26.23.46.5.61.82.15.32.23.68.23,1.08s-.07.76-.22,1.08c-.14.33-.33.62-.57.89-.23.26-.5.51-.8.73-.3.22-.61.44-.94.64l2.82,3.4c.16-.31.26-.63.31-.95s.07-.73.07-1.22h1.14c0,.36-.05.83-.15,1.4-.1.57-.3,1.14-.61,1.69l2.17,2.62h-1.43l-1.37-1.68c-.47.59-1.03,1.06-1.68,1.41Zm-3.18-5.6c-.31.21-.6.44-.85.71-.25.26-.46.56-.61.88-.16.32-.24.67-.24,1.06s.08.72.24,1.03c.16.31.36.58.62.81.26.23.56.4.9.52.34.12.69.18,1.05.18.65,0,1.23-.18,1.74-.53.51-.35.95-.79,1.31-1.31l-3.22-3.9c-.31.17-.63.36-.94.56Zm.38-5.65c-.34.28-.51.7-.51,1.24,0,.23.05.46.15.7.1.23.22.46.36.69s.3.44.47.65c.17.21.33.4.47.57.23-.14.46-.3.7-.47.23-.17.45-.36.64-.57s.35-.45.47-.71c.12-.26.18-.54.18-.86,0-.54-.17-.96-.51-1.24s-.74-.42-1.21-.42-.87.14-1.21.42Z" fill="#444"/><path d="m110.92,207.24v1.05h-4.5v11.86h-1.23v-11.86h-4.48v-1.05h10.21Z" fill="#444"/><path d="m110.75,217.07c.11.44.3.83.55,1.18.25.35.57.64.96.87s.85.34,1.39.34c.83,0,1.48-.22,1.95-.65.47-.43.8-1.01.98-1.74h1.14c-.24,1.06-.68,1.88-1.33,2.46-.64.58-1.56.87-2.74.87-.74,0-1.37-.13-1.91-.39s-.97-.61-1.31-1.07-.59-.98-.75-1.57c-.16-.6-.24-1.23-.24-1.89,0-.61.08-1.22.24-1.81.16-.59.41-1.12.75-1.58s.77-.84,1.31-1.12,1.17-.42,1.91-.42,1.39.15,1.92.45c.53.3.96.7,1.29,1.18.33.49.57,1.05.71,1.68.15.63.21,1.27.18,1.93h-7.18c0,.41.06.83.17,1.27Zm5.64-3.48c-.14-.4-.33-.75-.59-1.06-.25-.31-.56-.55-.92-.74-.36-.19-.77-.28-1.23-.28s-.89.09-1.25.28c-.36.19-.67.43-.92.74-.25.31-.45.66-.61,1.07-.15.4-.25.82-.3,1.24h6.04c-.01-.43-.09-.85-.23-1.25Z" fill="#444"/><path d="m125.01,212.1c-.42-.4-1.01-.6-1.77-.6-.54,0-1.02.12-1.43.34-.41.23-.75.53-1.02.9-.27.37-.48.8-.61,1.27-.14.48-.21.96-.21,1.46s.07.98.21,1.46c.14.48.34.9.61,1.27.27.37.61.68,1.02.9.41.23.89.34,1.43.34.35,0,.68-.07.99-.2.31-.13.59-.32.83-.55.24-.23.44-.51.6-.84.16-.33.25-.68.29-1.07h1.14c-.16,1.13-.57,2.02-1.25,2.65s-1.54.95-2.6.95c-.71,0-1.34-.13-1.89-.39-.55-.26-1.01-.61-1.38-1.06-.37-.45-.66-.97-.85-1.56-.19-.6-.29-1.23-.29-1.91s.1-1.31.29-1.91c.19-.6.48-1.12.85-1.56.37-.45.83-.8,1.38-1.07.55-.27,1.18-.4,1.89-.4,1,0,1.85.27,2.54.8.69.53,1.11,1.33,1.24,2.4h-1.14c-.16-.7-.45-1.25-.87-1.65Z" fill="#444"/><path d="m129.8,207.24v5.19h.04c.22-.57.6-1.02,1.16-1.36.55-.34,1.16-.52,1.83-.52s1.2.08,1.64.25c.44.17.79.41,1.06.71.26.31.45.68.56,1.13.11.45.16.95.16,1.5v6h-1.14v-5.82c0-.4-.04-.77-.11-1.11-.07-.34-.2-.64-.38-.9-.18-.25-.42-.45-.73-.6-.31-.15-.69-.22-1.15-.22s-.87.08-1.22.24c-.36.16-.66.39-.9.67s-.44.62-.58,1.01c-.14.39-.21.82-.23,1.27v5.44h-1.14v-12.91h1.14Z" fill="#444"/><path d="m139.51,210.82v1.61h.04c.22-.57.6-1.02,1.16-1.36.55-.34,1.16-.52,1.83-.52s1.2.08,1.64.25c.44.17.79.41,1.06.71.27.31.45.68.56,1.13.11.45.16.95.16,1.5v6h-1.14v-5.82c0-.4-.04-.77-.11-1.11-.07-.34-.2-.64-.38-.9-.18-.25-.42-.45-.73-.6-.31-.15-.69-.22-1.15-.22s-.87.08-1.22.24c-.36.16-.66.39-.9.67s-.44.62-.58,1.01-.21.82-.23,1.27v5.44h-1.14v-9.33h1.14Z" fill="#444"/><path d="m153.92,210.95c.55.26,1.01.62,1.38,1.07.37.45.66.97.85,1.56.19.6.29,1.23.29,1.91s-.1,1.31-.29,1.91c-.19.6-.48,1.12-.85,1.56-.37.45-.83.8-1.38,1.06-.55.26-1.18.39-1.89.39s-1.34-.13-1.89-.39c-.55-.26-1.01-.61-1.38-1.06-.37-.45-.66-.97-.85-1.56-.19-.6-.29-1.23-.29-1.91s.1-1.31.29-1.91c.19-.6.48-1.12.85-1.56.37-.45.83-.8,1.38-1.07.55-.27,1.18-.4,1.89-.4s1.34.13,1.89.4Zm-3.32.9c-.41.23-.75.53-1.02.9-.27.37-.48.8-.62,1.27-.14.48-.21.96-.21,1.46s.07.98.21,1.46c.14.48.34.9.62,1.27.27.37.61.68,1.02.9.41.23.89.34,1.43.34s1.02-.12,1.43-.34c.41-.23.75-.53,1.02-.9.27-.37.48-.8.62-1.27.14-.48.21-.96.21-1.46s-.07-.98-.21-1.46c-.14-.48-.34-.9-.62-1.27-.27-.37-.61-.67-1.02-.9-.41-.23-.89-.34-1.43-.34s-1.02.12-1.43.34Z" fill="#444"/><path d="m159.3,207.24v12.91h-1.14v-12.91h1.14Z" fill="#444"/><path d="m167.32,210.95c.55.26,1.01.62,1.38,1.07.37.45.66.97.85,1.56s.29,1.23.29,1.91-.1,1.31-.29,1.91-.48,1.12-.85,1.56c-.37.45-.83.8-1.38,1.06-.55.26-1.18.39-1.89.39s-1.34-.13-1.89-.39c-.55-.26-1.01-.61-1.38-1.06-.37-.45-.66-.97-.85-1.56-.19-.6-.29-1.23-.29-1.91s.1-1.31.29-1.91c.19-.6.48-1.12.85-1.56.37-.45.83-.8,1.38-1.07.55-.27,1.18-.4,1.89-.4s1.34.13,1.89.4Zm-3.32.9c-.41.23-.75.53-1.02.9-.27.37-.48.8-.61,1.27-.14.48-.21.96-.21,1.46s.07.98.21,1.46c.14.48.34.9.61,1.27.27.37.61.68,1.02.9.41.23.89.34,1.43.34s1.02-.12,1.43-.34c.41-.23.75-.53,1.02-.9.27-.37.48-.8.61-1.27.14-.48.21-.96.21-1.46s-.07-.98-.21-1.46c-.14-.48-.34-.9-.61-1.27-.27-.37-.61-.67-1.02-.9-.41-.23-.89-.34-1.43-.34s-1.02.12-1.43.34Z" fill="#444"/><path d="m179.19,221.25c-.15.55-.39,1.02-.71,1.41s-.75.68-1.27.89-1.17.31-1.93.31c-.47,0-.93-.05-1.37-.16-.45-.11-.85-.28-1.2-.51-.36-.23-.65-.52-.89-.88-.23-.36-.37-.78-.41-1.27h1.14c.06.35.18.64.35.88s.39.42.63.57.52.25.82.32c.3.07.61.1.92.1,1.06,0,1.83-.3,2.3-.9.47-.6.71-1.47.71-2.6v-1.27h-.04c-.26.58-.65,1.04-1.17,1.39-.51.35-1.11.52-1.8.52-.75,0-1.39-.12-1.92-.37-.53-.25-.97-.59-1.31-1.02-.34-.43-.59-.94-.75-1.53-.16-.58-.24-1.21-.24-1.87s.09-1.24.28-1.82.46-1.07.81-1.5c.36-.43.8-.76,1.32-1.01.52-.25,1.12-.37,1.8-.37.35,0,.68.05.99.14.31.1.59.23.84.41s.48.38.68.61c.2.23.35.47.46.72h.04v-1.61h1.14v8.57c0,.69-.08,1.31-.23,1.86Zm-2.61-2.49c.37-.21.69-.49.94-.83.25-.34.44-.74.57-1.18s.19-.9.19-1.37-.05-.92-.16-1.37-.28-.87-.52-1.25c-.24-.37-.55-.67-.93-.9-.38-.23-.84-.34-1.38-.34s-1.01.11-1.39.33-.71.51-.96.88c-.25.36-.44.77-.55,1.24s-.17.94-.17,1.42.06.93.18,1.37c.12.45.31.84.56,1.18.25.34.57.62.96.83s.84.32,1.37.32c.49,0,.93-.11,1.3-.32Z" fill="#444"/><path d="m181.75,210.82l3.07,7.95,2.87-7.95h1.14l-4.05,10.74c-.17.4-.33.73-.47.99-.14.26-.3.46-.48.61-.17.15-.38.26-.62.33-.23.07-.53.1-.89.1-.23-.01-.41-.02-.53-.03-.13,0-.24-.03-.33-.06v-.96c.13.02.26.04.39.06.13.02.26.03.39.03.25,0,.46-.04.62-.11s.3-.17.42-.3c.12-.13.22-.28.31-.46.08-.18.17-.38.27-.6l.4-1.05-3.72-9.29h1.21Z" fill="#444"/><path d="m196.43,207.24v5.6h7.67v-5.6h1.23v12.91h-1.23v-6.25h-7.67v6.25h-1.23v-12.91h1.23Z" fill="#444"/><path d="m209.03,207.24v7.99c0,.75.08,1.38.25,1.91.17.52.42.95.74,1.28.33.33.72.57,1.19.72.47.15,1,.23,1.59.23s1.14-.08,1.61-.23c.47-.15.87-.39,1.19-.72.33-.33.57-.76.74-1.28.17-.52.25-1.16.25-1.91v-7.99h1.23v8.26c0,.66-.09,1.29-.28,1.89-.19.6-.48,1.12-.89,1.56-.4.45-.92.8-1.55,1.06-.63.26-1.4.39-2.31.39s-1.65-.13-2.29-.39c-.63-.26-1.15-.61-1.55-1.06-.4-.45-.7-.97-.89-1.56-.19-.6-.28-1.23-.28-1.89v-8.26h1.23Z" fill="#444"/><path d="m225.77,207.24c.54,0,1.06.05,1.56.15s.94.28,1.32.52.68.57.91.98c.23.4.34.91.34,1.51,0,.34-.05.67-.16.99s-.26.61-.46.87c-.2.26-.43.48-.71.66-.27.18-.58.31-.91.38v.04c.83.11,1.49.45,1.99,1.02s.74,1.28.74,2.12c0,.21-.02.44-.05.7s-.11.52-.22.79c-.11.27-.26.54-.47.8-.21.27-.48.5-.82.7-.34.2-.77.36-1.27.49-.5.13-1.1.19-1.8.19h-5.46v-12.91h5.46Zm0,5.66c.49,0,.92-.06,1.28-.17.36-.11.66-.27.9-.47.24-.2.42-.43.54-.7.12-.26.18-.55.18-.85,0-1.62-.97-2.42-2.91-2.42h-4.23v4.61h4.23Zm0,6.2c.46,0,.89-.04,1.3-.12.41-.08.77-.22,1.08-.42.31-.21.56-.48.74-.82.18-.34.27-.77.27-1.29,0-.83-.29-1.46-.88-1.87-.58-.42-1.43-.62-2.52-.62h-4.23v5.15h4.23Z" fill="#444"/></g></g><line x1="111.55" y1="70.5" x2="111.95" y2="159.4" fill="none" stroke="#e92938" stroke-miterlimit="10" stroke-width="5"/><line x1="135.85" y1="156.4" x2="135.85" y2="108.2" fill="none" stroke="#e92938" stroke-miterlimit="10" stroke-width="5"/><line x1="155.75" y1="89.2" x2="135.25" y2="109.7" fill="none" stroke="#e92938" stroke-miterlimit="10" stroke-width="5"/><circle cx="161.15" cy="83.9" r="8.6" fill="none" stroke="#e92938" stroke-miterlimit="10" stroke-width="5"/><line x1="124.65" y1="159.1" x2="124.65" y2="91.3" fill="none" stroke="#e92938" stroke-miterlimit="10" stroke-width="5"/><line x1="141.95" y1="74.9" x2="124.05" y2="92.8" fill="none" stroke="#e92938" stroke-miterlimit="10" stroke-width="5"/><line x1="141.05" y1="49.9" x2="141.05" y2="76.9" fill="none" stroke="#e92938" stroke-miterlimit="10" stroke-width="5"/><circle cx="141.05" cy="41.3" r="8.6" fill="none" stroke="#e92938" stroke-miterlimit="10" stroke-width="5"/><line x1="93.65" y1="154.3" x2="93.65" y2="115.5" fill="none" stroke="#e92938" stroke-miterlimit="10" stroke-width="5"/><line x1="93.65" y1="79.5" x2="93.65" y2="99.6" fill="none" stroke="#e92938" stroke-miterlimit="10" stroke-width="5"/><line x1="80.25" y1="67.2" x2="94.45" y2="81.4" fill="none" stroke="#e92938" stroke-miterlimit="10" stroke-width="5"/><line x1="71.25" y1="144.4" x2="71.25" y2="95.7" fill="none" stroke="#e92938" stroke-miterlimit="10" stroke-width="5"/><line x1="154.75" y1="147.7" x2="154.75" y2="124.1" fill="none" stroke="#e92938" stroke-miterlimit="10" stroke-width="5"/><circle cx="154.75" cy="116.2" r="8.6" fill="none" stroke="#e92938" stroke-miterlimit="10" stroke-width="5"/><circle cx="111.55" cy="63.5" r="8.6" fill="none" stroke="#e92938" stroke-miterlimit="10" stroke-width="5"/><circle cx="93.65" cy="108.2" r="8.6" fill="none" stroke="#e92938" stroke-miterlimit="10" stroke-width="5"/><circle cx="75.75" cy="62.7" r="8.6" fill="none" stroke="#e92938" stroke-miterlimit="10" stroke-width="5"/><circle cx="71.25" cy="89.6" r="8.6" fill="none" stroke="#e92938" stroke-miterlimit="10" stroke-width="5"/><circle cx="116.45" cy="81" r="78.5" fill="none" stroke="#e92938" stroke-miterlimit="10" stroke-width="5"/></svg>