<svg height="512pt" viewBox="0 0 512 512" width="512pt" xmlns="http://www.w3.org/2000/svg"><path d="m0 256c0-141.386719 114.613281-256 256-256s256 114.613281 256 256-114.613281 256-256 256c-83.632812 0-157.902344-40.105469-204.617188-102.132812-13.574218-18.023438 1.09375-50.921876-7.382812-72.199219-8.003906-20.089844-39.449219-28.402344-42.136719-50.617188-1.230469-10.179687-1.863281-20.539062-1.863281-31.050781zm0 0" fill="#00efd1"/><path d="m256 512c138.519531 0 251.324219-110.019531 255.84375-247.441406l-177.953125-177.953125h-79.046875v55.699219h-55.695312v79.046874l112.511718 111.988282-47.5 9.707031-26.515625-26.160156c-1.820312-2.441407-4.058593-4.574219-6.644531-6.199219 0 0-63.210938-39.367188-67.761719-42.207031-7.089843-4.429688-15.410156-10.941407-25.917969-8.792969-1.761718.363281-65.414062 13.210938-135.441406 27.359375 2.980469 24.640625 32.652344 28.648437 42.121094 50.621094 8.109375 18.820312-4.78125 56.027343 7.390625 72.191406 46.710937 62.03125 120.972656 102.140625 204.609375 102.140625zm0 0" fill="#00ceb4"/><path d="m364.058594 383.628906-122.230469 24.980469c-22.476563 4.582031-48.40625 9.191406-68.929687-3-25.75-15.300781-28.988282-14.449219-45.859376-11l-75.660156 15.261719c-17.929687-23.8125-31.800781-50.851563-40.578125-80.101563-1.5-4.96875-2.851562-10.007812-4.039062-15.097656l126.410156-25.5625c2.167969-.4375 4.417969-.070313 6.199219 1.039063l92.488281 57.191406c.640625.390625 1.332031.691406 2.0625.898437 1.316406.371094 2.75.421875 4.148437.140625l114.039063-23.308594c16.929687-3.46875 33.21875 5.078126 38.019531 19.359376.351563 1.039062.632813 2.109374.859375 3.199218 3.300781 16.160156-8.75 32.292969-26.929687 36zm0 0" fill="#ffdba9"/><path d="m239.5 342.941406c-1.488281 2.136719-3.398438 3.910156-5.578125 5.296875-8.3125 5.320313-20.613281 5.230469-29.03125-.046875 0 0-22.570313-14.101562-22.671875-14.171875l-46.980469-29.410156-124.4375 25.160156c-1.5-4.96875-2.851562-10.007812-4.039062-15.097656-2.121094-9.03125-3.761719-18.25-4.890625-27.621094 70.027344-14.152343 133.6875-27 135.449218-27.359375 10.507813-2.152344 18.828126 4.359375 25.917969 8.789063 4.550781 2.839843 67.761719 42.210937 67.761719 42.210937 4.980469 3.128906 8.71875 8.128906 10.570312 13.628906 2.109376 6.25 1.75 13.140626-2.070312 18.621094zm0 0" fill="#ffc473"/><path d="m389.589844 142.304688h-55.699219v-55.699219h-79.046875v55.699219h-55.695312v79.046874h55.695312v55.699219h79.046875v-55.699219h55.699219zm0 0" fill="#ff0335"/><path d="m389.589844 142.300781v79.050781h-55.703125v55.699219h-39.519531v-190.441406h39.519531v55.691406zm0 0" fill="#c2001b"/></svg>