<svg id="Layer_1" enable-background="new 0 0 512 512" height="512" viewBox="0 0 512 512" width="512" xmlns="http://www.w3.org/2000/svg"><g><g><g><g><g><g id="XMLID_1042_"><g id="XMLID_1043_"><g id="XMLID_1044_"><g id="XMLID_1045_"><g id="XMLID_1046_"><g id="XMLID_1047_"><g id="XMLID_1048_"><g id="XMLID_1049_"><g id="XMLID_1050_"><g id="XMLID_1051_"><g id="XMLID_1052_"><g id="XMLID_1053_"><g id="XMLID_1054_"><g id="XMLID_1055_"><g id="XMLID_1056_"><path d="m0 256c0-141.385 114.615-256 256-256s256 114.615 256 256c0 65.978-24.96 126.127-65.952 171.519-46.849 51.878-114.641-31.429-190.048-31.429s-143.199 83.307-190.048 31.428c-40.992-45.391-65.952-105.54-65.952-171.518z" fill="#71f4e4"/></g></g></g></g></g></g></g></g></g></g></g></g></g></g></g></g></g></g></g><path d="m510.556 228.649-172.625-172.625-177.306 159.667 197.928 197.929v-3.306l26.088 29.881c22.983 7.228 43.692 6.94 61.407-12.677 40.992-45.391 65.952-105.54 65.952-171.518 0-9.24-.49-18.365-1.444-27.351z" fill="#1ed3c6"/><g><path d="m199.97 250.232h112.06v118.84h-112.06z" fill="#eaa678"/><path d="m256 250.236h56.03v118.84h-56.03z" fill="#d38c5b"/><path d="m199.97 324.82h112.06v121.31h-112.06z" fill="#eaa678"/><path d="m256 324.82h56.03v121.31h-56.03z" fill="#d38c5b"/><path d="m446.05 382.27v45.25c-46.86 51.88-114.65 84.48-190.05 84.48s-143.19-32.6-190.05-84.48v-45.25c0-31.73 25.72-57.45 57.45-57.45h76.57v12.46c0 30.95 25.09 56.03 56.03 56.03 15.47 0 29.48-6.27 39.62-16.41s16.41-24.14 16.41-39.62v-12.46h76.57c31.73 0 57.45 25.72 57.45 57.45z" fill="#0a617d"/><path d="m446.05 382.27v45.25c-46.86 51.88-114.65 84.48-190.05 84.48v-118.69c15.47 0 29.48-6.27 39.62-16.41s16.41-24.14 16.41-39.62v-12.46h76.57c31.73 0 57.45 25.72 57.45 57.45z" fill="#08475e"/><path d="m157.33 419.645v72.625c-11.17-4.66-21.95-10.11-32.25-16.25v-56.375z" fill="#08475e"/><path d="m386.92 419.645v56.375c-10.3 6.14-21.08 11.59-32.25 16.25v-72.625z" fill="#05303d"/><path d="m344.251 152.225c-3.728-56.6-49.511-77.517-88.251-77.517s-84.523 20.917-88.251 77.517c-10.018 1.938-17.134 15.077-16.014 25.701l1.717 24.177c1.175 11.157 10.982 19.301 21.79 18.089l1.864-.202c22.138 59.446 56.857 65.644 78.894 69.124 22.038-3.48 56.756-9.678 78.894-69.124l1.864.202c10.807 1.212 20.614-6.933 21.79-18.089l1.717-24.177c1.12-10.624-5.996-23.763-16.014-25.701z" fill="#ffc397"/><path d="m360.265 177.926-1.717 24.177c-1.175 11.157-10.982 19.301-21.79 18.089l-1.864-.202c-7.566 20.293-16.592 34.388-26.078 44.277-18.291 19.081-38.299 22.552-52.817 24.847v-214.406c38.74 0 84.523 20.917 88.251 77.517 10.019 1.938 17.135 15.077 16.015 25.701z" fill="#e5a376"/><path d="m161.656 138.569c1.562 12.106 8.002 29.093 8.002 29.093l14.254 7.029 17.966-60.067s28.117 37.222 94.893 34.489l12.106-30.46 20.694 56.038 14.254-8.005s5.486-23.411 6.788-34.267c1.745-14.546 19.965-108.268-94.259-108.268-91.964-.001-103.289 60.918-94.698 114.418z" fill="#0a617d"/><path d="m350.61 132.42c-1.3 10.85-6.78 34.27-6.78 34.27l-14.26 8-20.69-56.04-12.11 30.46c-15.68.64-29.22-.92-40.77-3.69v-121.27h.35c114.23 0 96.01 93.72 94.26 108.27z" fill="#08475e"/><path d="m285.034 201.251h-58.069c-7.633 0-15.165 1.745-22.02 5.103l-27.84 13.636c15.45 73.257 78.895 72.862 78.895 72.862s63.445.395 78.895-72.861l-27.84-13.636c-6.856-3.358-14.388-5.104-22.021-5.104z" fill="#fff"/><path d="m334.89 219.99c-15.44 73.26-78.89 72.86-78.89 72.86v-91.6h29.03c7.64 0 15.17 1.75 22.02 5.1z" fill="#d8f1fb"/></g></g></svg>