<?xml version="1.0" encoding="UTF-8"?> <!-- Generator: Adobe Illustrator 16.0.0, SVG Export Plug-In . SVG Version: 6.00 Build 0) --> <svg xmlns="http://www.w3.org/2000/svg" xmlns:xlink="http://www.w3.org/1999/xlink" baseProfile="tiny" id="Layer_1" x="0px" y="0px" width="322px" height="71.432px" viewBox="0 0 322 71.432" xml:space="preserve"> <g> <path fill="#FFFFFF" d="M107.843,38.392c1.894,1.579,4.154,2.378,6.767,2.4c3.092-0.047,4.664-1.165,4.705-3.358 c0.025-1.793-1.008-2.873-3.099-3.236c-0.96-0.132-2.012-0.281-3.155-0.447c-2.05-0.337-3.603-1.106-4.671-2.298 c-1.103-1.221-1.65-2.708-1.65-4.457c0-2.105,0.694-3.799,2.072-5.09c1.342-1.275,3.237-1.924,5.691-1.947 c2.962,0.063,5.535,0.895,7.722,2.484l-2.011,2.997c-1.785-1.192-3.75-1.805-5.897-1.85c-1.111,0-2.041,0.278-2.778,0.842 c-0.778,0.582-1.176,1.455-1.194,2.611c0,0.694,0.267,1.32,0.799,1.881c0.533,0.573,1.388,0.973,2.564,1.19 c0.653,0.112,1.548,0.232,2.684,0.38c2.23,0.308,3.876,1.119,4.95,2.429c1.057,1.29,1.581,2.783,1.581,4.492 c-0.113,4.601-2.903,6.937-8.352,7.003c-3.527,0-6.557-1.091-9.093-3.284L107.843,38.392z"></path> <rect x="128.054" y="20.156" fill="#FFFFFF" width="3.603" height="24.068"></rect> <polygon fill="#FFFFFF" points="137.648,20.157 141.25,20.157 141.25,40.791 152.86,40.791 152.86,44.224 137.648,44.224 "></polygon> <rect x="157.544" y="20.156" fill="#FFFFFF" width="3.604" height="24.068"></rect> <path fill="#FFFFFF" d="M183.201,37.499c-0.524,2.232-1.521,3.943-2.989,5.139c-1.515,1.186-3.308,1.782-5.381,1.782 c-1.869-0.043-3.429-0.508-4.68-1.386c-1.271-0.849-2.203-1.83-2.779-2.939c-0.172-0.359-0.328-0.708-0.472-1.041 c-0.132-0.343-0.241-0.767-0.327-1.287c-0.164-0.968-0.245-2.826-0.245-5.574c0-2.798,0.081-4.669,0.245-5.612 c0.174-0.95,0.439-1.714,0.799-2.297c0.576-1.11,1.508-2.103,2.784-2.969c1.246-0.881,2.81-1.333,4.68-1.352 c2.301,0.019,4.171,0.706,5.622,2.058c1.445,1.366,2.359,3.049,2.743,5.061h-3.829c-0.292-0.973-0.826-1.799-1.601-2.483 c-0.809-0.651-1.791-0.988-2.947-1.012c-0.849,0.023-1.585,0.195-2.19,0.515c-0.621,0.331-1.124,0.748-1.508,1.243 c-0.467,0.515-0.779,1.186-0.932,2c-0.176,0.861-0.259,2.474-0.259,4.849c0,2.368,0.083,3.974,0.259,4.812 c0.152,0.835,0.465,1.518,0.932,2.033c0.384,0.498,0.887,0.897,1.509,1.208c0.611,0.366,1.345,0.547,2.189,0.547 c2.037,0,3.552-1.1,4.557-3.292H183.201z"></path> <path fill="#FFFFFF" d="M186.226,32.188c0-2.799,0.082-4.673,0.246-5.623c0.171-0.946,0.438-1.716,0.799-2.299 c0.576-1.106,1.503-2.094,2.778-2.959c1.251-0.879,2.812-1.33,4.681-1.348c1.898,0.018,3.478,0.473,4.735,1.352 c1.256,0.874,2.155,1.858,2.711,2.969c0.401,0.583,0.684,1.349,0.835,2.298c0.139,0.943,0.209,2.814,0.209,5.609 c0,2.749-0.07,4.609-0.209,5.579c-0.151,0.972-0.434,1.746-0.835,2.327c-0.556,1.114-1.455,2.093-2.711,2.939 c-1.258,0.878-2.837,1.344-4.735,1.387c-1.869-0.043-3.43-0.508-4.681-1.387c-1.275-0.846-2.202-1.825-2.778-2.939 c-0.172-0.361-0.333-0.706-0.472-1.038c-0.132-0.343-0.241-0.771-0.327-1.29C186.308,36.797,186.226,34.937,186.226,32.188 M189.834,32.188c0,2.371,0.084,3.975,0.254,4.813c0.155,0.836,0.467,1.517,0.941,2.035c0.378,0.497,0.882,0.9,1.499,1.207 c0.609,0.365,1.346,0.544,2.194,0.544c0.866,0,1.608-0.179,2.238-0.544c0.604-0.307,1.086-0.71,1.441-1.207 c0.472-0.518,0.796-1.199,0.969-2.035c0.161-0.838,0.245-2.443,0.245-4.813c0-2.369-0.084-3.986-0.245-4.846 c-0.173-0.814-0.497-1.483-0.969-2.003c-0.355-0.495-0.837-0.907-1.441-1.238c-0.63-0.32-1.372-0.487-2.238-0.51 c-0.849,0.023-1.585,0.19-2.194,0.51c-0.617,0.331-1.121,0.743-1.499,1.238c-0.475,0.52-0.786,1.189-0.941,2.003 C189.918,28.202,189.834,29.819,189.834,32.188"></path> <polygon fill="#FFFFFF" points="209.406,20.157 212.803,20.157 223.584,37.264 223.651,37.264 223.651,20.157 227.258,20.157 227.258,44.224 223.842,44.224 213.073,27.117 213.01,27.117 213.01,44.224 209.406,44.224 "></polygon> <path fill="#FFFFFF" d="M258.136,37.499c-0.523,2.232-1.521,3.943-2.988,5.139c-1.516,1.186-3.308,1.782-5.378,1.782 c-1.868-0.043-3.435-0.508-4.68-1.386c-1.276-0.849-2.207-1.83-2.779-2.939c-0.174-0.359-0.333-0.708-0.476-1.041 c-0.126-0.343-0.241-0.767-0.328-1.287c-0.159-0.968-0.245-2.826-0.245-5.574c0-2.798,0.086-4.669,0.245-5.612 c0.181-0.95,0.441-1.714,0.804-2.297c0.574-1.11,1.503-2.103,2.779-2.969c1.247-0.881,2.812-1.333,4.686-1.352 c2.297,0.019,4.172,0.706,5.618,2.058c1.446,1.366,2.362,3.049,2.742,5.061h-3.825c-0.296-0.973-0.829-1.799-1.604-2.483 c-0.81-0.651-1.791-0.988-2.948-1.012c-0.849,0.023-1.58,0.195-2.188,0.515c-0.623,0.331-1.126,0.748-1.505,1.243 c-0.47,0.515-0.783,1.186-0.935,2c-0.172,0.861-0.26,2.474-0.26,4.849c0,2.368,0.088,3.974,0.26,4.812 c0.151,0.835,0.465,1.518,0.935,2.033c0.384,0.498,0.882,0.897,1.505,1.208c0.608,0.366,1.345,0.547,2.19,0.547 c2.035,0,3.55-1.1,4.553-3.292H258.136z"></path> <path fill="#FFFFFF" d="M274.177,38.839h-9.035l-1.826,5.38h-3.822l8.654-24.062h3.021l8.656,24.062h-3.805L274.177,38.839z M273.147,35.606L269.7,25.078h-0.063l-3.452,10.529H273.147z"></path> <path fill="#FFFFFF" d="M283.726,20.156h8.632c0.936,0,1.839,0.089,2.714,0.265c0.868,0.229,1.759,0.706,2.646,1.421 c0.749,0.538,1.365,1.31,1.829,2.308c0.492,0.967,0.736,2.114,0.736,3.432c0,1.785-0.623,3.408-1.868,4.867 c-1.274,1.541-3.14,2.335-5.589,2.379h-5.498v9.396h-3.603V20.156z M287.328,31.396h5.354c1.344-0.023,2.351-0.441,3.029-1.259 c0.646-0.795,0.965-1.681,0.965-2.654c0-0.807-0.133-1.486-0.393-2.041c-0.273-0.495-0.658-0.884-1.145-1.173 c-0.742-0.476-1.608-0.702-2.591-0.679h-5.22V31.396z"></path> <polygon fill="#FFFFFF" points="304.887,20.157 320.1,20.157 320.1,23.59 308.486,23.59 308.486,30.472 318.401,30.472 318.401,33.707 308.486,33.707 308.486,40.791 320.1,40.791 320.1,44.224 304.887,44.224 "></polygon> <rect x="105.848" y="49.656" fill="#34BDB4" width="2.069" height="13.431"></rect> <polygon fill="#34BDB4" points="125.618,49.656 127.569,49.656 133.758,59.203 133.797,59.203 133.797,49.656 135.863,49.656 135.863,63.087 133.905,63.087 127.723,53.541 127.686,53.541 127.686,63.087 125.618,63.087 "></polygon> <rect x="153.843" y="49.656" fill="#34BDB4" width="2.067" height="13.431"></rect> <polygon fill="#34BDB4" points="175.938,51.46 172.188,51.46 172.188,49.653 181.758,49.653 181.758,51.46 178.005,51.46 178.005,63.086 175.938,63.086 "></polygon> <rect x="198.188" y="49.656" fill="#34BDB4" width="2.072" height="13.431"></rect> <path fill="#34BDB4" d="M224.961,60.086h-5.178l-1.057,3h-2.188l4.967-13.43h1.73l4.968,13.43h-2.181L224.961,60.086z M224.375,58.28l-1.982-5.876h-0.035l-1.978,5.876H224.375z"></path> <polygon fill="#34BDB4" points="245.563,51.46 241.813,51.46 241.813,49.653 251.381,49.653 251.381,51.46 247.63,51.46 247.63,63.086 245.563,63.086 "></polygon> <rect x="267.809" y="49.656" fill="#34BDB4" width="2.073" height="13.431"></rect> <polygon fill="#34BDB4" points="286.166,49.656 288.349,49.656 291.452,59.889 291.491,59.889 294.598,49.656 296.789,49.656 292.276,63.087 290.667,63.087 "></polygon> <polygon fill="#34BDB4" points="313.271,49.656 322,49.656 322,51.572 315.345,51.572 315.345,55.414 321.027,55.414 321.027,57.219 315.345,57.219 315.345,61.17 322,61.17 322,63.087 313.271,63.087 "></polygon> <path fill="#FFFFFF" d="M0,56.383c0.143-4.51,2.054-8.176,5.827-10.858c1.122-0.802,1.134-0.787,0.851-2.065 C2.835,25.776,12.541,8.167,29.539,2.124c8.686-3.089,17.331-2.781,25.846,0.75c0.774,0.318,1.305,0.333,2.041-0.143 c3.164-2.036,7.286-1.763,10.199,0.571c2.948,2.359,4.111,6.266,2.827,9.821c-0.303,0.847-0.261,1.422,0.262,2.164 c8.978,12.756,8.592,29.889-0.945,42.23c-0.596,0.768-0.703,1.286-0.245,2.192c1.716,3.43,0.63,7.585-2.451,9.87 c-3.053,2.267-7.235,2.124-10.055-0.439c-0.691-0.627-1.181-0.72-2.048-0.386c-10.697,4.152-21.09,3.482-31.152-2.053 c-1.274-0.7-0.856-0.691-1.906,0.137c-4.057,3.226-8.588,3.998-13.381,2.15c-4.818-1.854-7.571-5.545-8.412-10.639 C0.019,57.739,0.042,57.114,0,56.383 M67.058,17.675c-0.245,0.116-0.409,0.187-0.561,0.268c-3.445,1.771-6.81,1.641-9.867-0.749 c-3.07-2.399-3.992-5.657-3.026-9.402c0.197-0.785-0.086-1.005-0.697-1.24c-4.985-1.901-10.136-2.637-15.426-1.877 c-9.489,1.358-16.98,6.034-22.223,14.059c-4.678,7.169-6.084,15.034-4.374,23.438c0.23,1.114,0.249,1.114,1.329,1.066 c0.979-0.039,1.954-0.08,2.925,0.056c8.674,1.208,13.837,10.069,10.646,18.258c-0.391,1.002-0.403,1.018,0.48,1.494 c8.771,4.733,17.805,5.23,27.096,1.678c0.717-0.271,0.952-0.617,0.931-1.447c-0.118-5.462,5.011-9.351,10.243-7.848 c1.077,0.313,1.077,0.313,1.737-0.526c0.109-0.141,0.225-0.279,0.328-0.421c5.138-7.045,7.091-14.905,5.849-23.517 C71.764,26.153,69.945,21.75,67.058,17.675"></path> <path fill="#1BB9B1" d="M84.173,11.513c-2.613,0.012-4.729-2.088-4.752-4.714c-0.022-2.672,2.151-4.864,4.793-4.818 c2.593,0.038,4.713,2.203,4.697,4.796C88.9,9.384,86.783,11.501,84.173,11.513"></path> <path fill="#FFFFFF" d="M37.155,51.28c-0.583-3.209-1.668-6.358-1.309-9.699c0.054-0.498-0.103-0.84-0.487-1.149 c-0.549-0.443-1.042-0.967-1.609-1.39c-0.573-0.43-0.815-0.867-0.47-1.578c0.227-0.472,0.336-1.005,0.466-1.521 c0.195-0.744-0.03-1.085-0.797-1.136c-0.614-0.04-1.238-0.013-1.857-0.013c-1.91,0-3.818-0.007-5.728,0.01 c-0.551,0.003-1.003-0.094-1.434-0.514c-1.47-1.415-2.971-2.798-4.49-4.163c-0.416-0.375-0.528-0.767-0.458-1.29 c0.238-1.849,0.465-3.696,0.672-5.546c0.059-0.5,0.223-0.936,0.53-1.337c0.357-0.452,0.719-0.914,1.001-1.409 c1.882-3.283,4.767-5.549,7.751-7.725c0.415-0.3,0.797-0.488,1.337-0.444c2.917,0.208,5.841,0.377,8.759,0.572 c0.217,0.013,0.447-0.016,0.704,0.228c-0.184,0.729-0.872,1.251-1.087,2.012c0.625,0.56,1.238,0.644,1.86,0.018 c0.513-0.514,1.133-0.583,1.835-0.53c1.943,0.153,3.889,0.273,5.842,0.361c0.763,0.038,1.37,0.26,1.804,0.918 c0.148,0.218,0.323,0.433,0.526,0.599c1.368,1.155,2.005,2.5,1.228,4.279c-0.225,0.525-0.031,1.01,0.267,1.5 c0.976,1.595,2.12,3.057,3.254,4.541c0.479,0.625,0.982,0.765,1.7,0.61c1.646-0.346,3.3-0.645,4.937-0.959 c0.3,0.365,0.014,0.637-0.073,0.885c-0.792,2.209-1.618,4.411-2.423,6.615c-0.188,0.507-0.455,0.938-0.847,1.33 c-1.129,1.126-2.211,2.299-3.344,3.431c-0.413,0.409-0.556,0.82-0.457,1.412c0.224,1.315,0.337,2.639,0.561,3.951 c0.08,0.489,0.004,0.87-0.322,1.212c-0.031,0.033-0.055,0.077-0.085,0.105c-1.91,2.04-3.192,4.45-4.16,7.046 c-0.171,0.465-0.377,0.903-0.853,1.136c-0.994-0.591-1.991-1.181-2.989-1.774c0.4-0.526,0.797-1.053,1.035-1.686 c0.778-2.135,1.767-4.156,3.353-5.827c0.33-0.349,0.438-0.72,0.361-1.209c-0.213-1.356-0.319-2.736-0.588-4.08 c-0.138-0.709,0.05-1.147,0.541-1.631c1.326-1.303,2.589-2.675,3.898-3.996c0.612-0.615,0.95-1.316,1.034-2.17 c-0.499-0.123-0.902-0.038-1.263,0.089c-0.559,0.188-0.898,0.034-1.241-0.422c-1.641-2.146-3.407-4.191-4.87-6.483 c-0.869-1.359-1.525-2.604-0.926-4.287c0.322-0.906-0.323-1.589-1.321-1.682c-0.841-0.074-1.694-0.03-2.521-0.173 c-1.294-0.219-2.45-0.093-3.407,0.907c-0.409,0.435-0.875,0.465-1.44,0.237c-1.811-0.729-3.622-1.437-5.461-2.086 c-0.676-0.241-0.838-0.602-0.489-1.338c-0.716,0-1.306,0.071-1.867-0.017c-0.879-0.132-1.487,0.246-2.166,0.733 c-2.262,1.639-4.135,3.598-5.573,5.987c-0.158,0.267-0.346,0.516-0.529,0.762c-0.287,0.364-0.414,0.776-0.462,1.226 c-0.088,0.929-0.15,1.863-0.315,2.776c-0.153,0.84,0.119,1.425,0.746,1.97c0.695,0.611,1.329,1.304,1.959,1.985 c0.393,0.425,0.829,0.582,1.403,0.569c1.777-0.034,3.563,0.126,5.318-0.05c2.032-0.205,3.57,0.418,4.948,1.882 c0.582,0.618,0.872,1.049,0.542,1.91c-0.592,1.539-0.534,1.562,0.683,2.607c0.099,0.089,0.191,0.192,0.304,0.258 c0.788,0.46,0.971,1.141,0.875,2.02c-0.178,1.535-0.315,3.071,0.038,4.625c0.395,1.724,0.665,3.475,0.988,5.215 C39.403,50.834,38.288,51.092,37.155,51.28"></path> <path fill="#1BB9B1" d="M37.155,51.28c1.133-0.188,2.249-0.446,3.343-0.784c0.301,1.064,0.603,2.128,0.901,3.191 c0.353,1.272,0.668,1.437,1.982,1.129c0.464-0.104,0.776-0.384,1.102-0.687c0.813-0.754,1.496-1.636,2.428-2.254 c0.998,0.593,1.995,1.183,2.989,1.774c-1.272,1.484-2.749,2.758-4.102,4.166c-0.307,0.321-0.684,0.413-1.078,0.443 c-1.633,0.147-3.269,0.258-4.907,0.402c-0.549,0.054-0.773-0.172-0.901-0.702C38.355,55.729,37.742,53.51,37.155,51.28"></path> </g> </svg> 