<svg height="512pt" viewBox="0 0 512 512" width="512pt" xmlns="http://www.w3.org/2000/svg"><path d="m512 256c0 141.386719-114.613281 256-256 256s-256-114.613281-256-256 114.613281-256 256-256 256 114.613281 256 256zm0 0" fill="#aaf471"/><path d="m335.84375 90.246094-106.4375-20.054688-33.265625 41.257813 113.125 113.125-4.195313 3.859375-67.6875-67.6875-131.230468 250.539062 94.753906 94.75c17.746094 3.894532 36.175781 5.964844 55.09375 5.964844 137.972656 0 250.429688-109.152344 255.78125-245.816406zm0 0" fill="#77db56"/><path d="m334.179688 230.011719h-30v-26.441407c0-30.3125 24.664062-54.976562 54.980468-54.976562v30c-13.773437 0-24.980468 11.207031-24.980468 24.976562zm0 0" fill="#fff"/><path d="m298.125 197.699219h42.109375v95.441406h-42.109375zm0 0" fill="#ffe85f"/><path d="m281.542969 144.542969c-14.425781-14.425781-37.894531-14.425781-52.316407-.003907l-21.214843-21.214843c26.121093-26.121094 68.625-26.117188 94.746093.003906zm0 0" fill="#2864f0"/><path d="m302.757812 123.328125c-13.007812-13.007813-30.078124-19.53125-47.164062-19.585937v29.984374c9.402344.054688 18.792969 3.65625 25.949219 10.816407zm0 0" fill="#27488f"/><path d="m314.628906 111.460938c-32.667968-32.671876-85.820312-32.671876-118.488281-.007813l-21.214844-21.214844c44.367188-44.359375 116.554688-44.355469 160.917969.007813zm0 0" fill="#2864f0"/><path d="m335.84375 90.246094c-22.128906-22.128906-51.179688-33.21875-80.25-33.273438v29.988282c21.386719.054687 42.753906 8.21875 59.035156 24.5zm0 0" fill="#27488f"/><path d="m257.75 248.152344-20.367188-87.40625h-120.039062v209.375h264.082031l12.003907-99.988282zm0 0" fill="#ffa426"/><path d="m393.429688 270.132812-135.679688-21.980468-20.367188-87.40625h-55.714843v209.375h199.757812zm0 0" fill="#ff8b00"/><path d="m405.957031 387.601562c0 25.84375-20.953125 46.796876-46.796875 46.796876-25.847656 0-46.796875-20.953126-46.796875-46.796876 0-25.847656 20.949219-46.796874 46.796875-46.796874 25.84375 0 46.796875 20.949218 46.796875 46.796874zm0 0" fill="#414952"/><path d="m359.160156 340.804688c25.84375 0 46.796875 20.953124 46.796875 46.796874s-20.953125 46.796876-46.796875 46.796876zm0 0" fill="#23272b"/><path d="m378.035156 387.601562c0 10.425782-8.453125 18.875-18.875 18.875-10.425781 0-18.878906-8.449218-18.878906-18.875 0-10.425781 8.453125-18.875 18.878906-18.875 10.421875 0 18.875 8.449219 18.875 18.875zm0 0" fill="#707789"/><path d="m359.160156 368.726562c10.425782 0 18.875 8.449219 18.875 18.875 0 10.425782-8.449218 18.875-18.875 18.875zm0 0" fill="#555a66"/><path d="m236.3125 260.925781h-97.179688l-3.105468-83.722656h82.667968zm0 0" fill="#2864f0"/><path d="m218.695312 177.203125h-37.027343v83.722656h54.644531zm0 0" fill="#27488f"/><path d="m241.207031 355.242188c0 43.71875-35.4375 79.15625-79.15625 79.15625-43.714843 0-79.15625-35.4375-79.15625-79.15625 0-43.714844 35.441407-79.15625 79.15625-79.15625 43.71875 0 79.15625 35.441406 79.15625 79.15625zm0 0" fill="#414952"/><path d="m162.050781 276.085938c43.71875 0 79.15625 35.441406 79.15625 79.15625 0 43.71875-35.4375 79.15625-79.15625 79.15625zm0 0" fill="#23272b"/><path d="m198.0625 355.242188c0 19.890624-16.121094 36.011718-36.011719 36.011718-19.886719 0-36.011719-16.121094-36.011719-36.011718 0-19.886719 16.125-36.011719 36.011719-36.011719 19.890625 0 36.011719 16.125 36.011719 36.011719zm0 0" fill="#707789"/><path d="m162.050781 319.230469c19.890625 0 36.011719 16.125 36.011719 36.011719 0 19.890624-16.121094 36.011718-36.011719 36.011718zm0 0" fill="#555a66"/></svg>