<svg xmlns="http://www.w3.org/2000/svg" viewBox="0 0 560.19 174.63"><path d="M46.05,128.74l.24-.72H79.15q0,16.38,6.63,23.54t19.54,7.17q10.86,0,16.31-6t5.43-15.89q0-10.4-5.31-16.43t-19.06-11.77Q75.92,99.22,62.42,87.28T48.92,53.82q0-21.39,15.41-34.83A52.32,52.32,0,0,1,83.74,8.31H14a6.27,6.27,0,0,0-6.25,6.25v161A6.26,6.26,0,0,0,14,181.81H84.74A62.46,62.46,0,0,1,63,170.74Q45.46,156.94,46.05,128.74ZM42.41,166.5a4.68,4.68,0,0,1-4.67,4.67H20.82a4.68,4.68,0,0,1-4.67-4.67V145.83a4.68,4.68,0,0,1,4.67-4.67H37.74a4.68,4.68,0,0,1,4.67,4.67Zm0-41.19A4.68,4.68,0,0,1,37.74,130H20.82a4.68,4.68,0,0,1-4.67-4.67V104.64A4.68,4.68,0,0,1,20.82,100H37.74a4.68,4.68,0,0,1,4.67,4.67Zm0-41.38a4.68,4.68,0,0,1-4.67,4.67H20.82a4.68,4.68,0,0,1-4.67-4.67V63.26a4.68,4.68,0,0,1,4.67-4.67H37.74a4.68,4.68,0,0,1,4.67,4.67Zm0-41a4.68,4.68,0,0,1-4.67,4.67H20.82a4.68,4.68,0,0,1-4.67-4.67V22.24a4.68,4.68,0,0,1,4.67-4.67H37.74a4.68,4.68,0,0,1,4.67,4.67Z" transform="translate(-7.74 -7.19)" fill="#741445"/><path d="M194.39,8.31H124a51.1,51.1,0,0,1,20.41,11.58q15.42,14.33,14.94,38.47l-.24.72H126.35q0-13.5-6-20.49t-17.26-7Q93.36,31.6,88,38T82.61,53.94a19.13,19.13,0,0,0,6.1,14.58q6.09,5.73,20.91,12.54,25.22,8.37,38.18,21.15t13,34.42q0,22.34-15.17,35.13a51.7,51.7,0,0,1-19.25,10.05h68a6.26,6.26,0,0,0,6.25-6.24v-161A6.27,6.27,0,0,0,194.39,8.31Zm0,158.19a4.68,4.68,0,0,1-4.67,4.67H172.79a4.68,4.68,0,0,1-4.67-4.67V145.83a4.68,4.68,0,0,1,4.67-4.67h16.92a4.68,4.68,0,0,1,4.67,4.67Zm0-41.19a4.68,4.68,0,0,1-4.67,4.67H172.79a4.68,4.68,0,0,1-4.67-4.67V104.64a4.68,4.68,0,0,1,4.67-4.67h16.92a4.68,4.68,0,0,1,4.67,4.67Zm0-41.38a4.68,4.68,0,0,1-4.67,4.67H172.79a4.68,4.68,0,0,1-4.67-4.67V63.26a4.68,4.68,0,0,1,4.67-4.67h16.92a4.68,4.68,0,0,1,4.67,4.67Zm0-41a4.68,4.68,0,0,1-4.67,4.67H172.79a4.68,4.68,0,0,1-4.67-4.67V22.24a4.68,4.68,0,0,1,4.67-4.67h16.92a4.68,4.68,0,0,1,4.67,4.67Z" transform="translate(-7.74 -7.19)" fill="#741445"/><path d="M327.34,7.19V119.41q0,29.25-16.82,45.65t-43.83,16.4q-26.91,0-43.66-16.45t-16.76-45.6V7.19h33.16V119.41q0,17.58,7.32,26.83t19.94,9.26q12.85,0,20.11-9.19t7.26-26.9V7.19Z" transform="translate(-7.74 -7.19)" fill="#f16522"/><path d="M440.26,107.13H385.74V179H352.47V7.19h98.17V33.26h-64.9V81.18h54.52Z" transform="translate(-7.74 -7.19)" fill="#ffdd15"/><path d="M557.54,107.13H503V179H469.76V7.19h98.17V33.26H503V81.18h54.51Z" transform="translate(-7.74 -7.19)" fill="#364c9e"/></svg>